<?xml version="1.0" standalone="no"?>
<!DOCTYPE svg PUBLIC "-//W3C//DTD SVG 1.1//EN" "http://www.w3.org/Graphics/SVG/1.1/DTD/svg11.dtd" >
<!--
2013-9-30: Created.
-->
<svg>
<metadata>
Created by iconfont
</metadata>
<defs>

<font id="iconfont" horiz-adv-x="1024" >
  <font-face
    font-family="iconfont"
    font-weight="500"
    font-stretch="normal"
    units-per-em="1024"
    ascent="896"
    descent="-128"
  />
    <missing-glyph />
    
    <glyph glyph-name="x" unicode="x" horiz-adv-x="1001"
d="M281 543q-27 -1 -53 -1h-83q-18 0 -36.5 -6t-32.5 -18.5t-23 -32t-9 -45.5v-76h912v41q0 16 -0.5 30t-0.5 18q0 13 -5 29t-17 29.5t-31.5 22.5t-49.5 9h-133v-97h-438v97zM955 310v-52q0 -23 0.5 -52t0.5 -58t-10.5 -47.5t-26 -30t-33 -16t-31.5 -4.5q-14 -1 -29.5 -0.5
t-29.5 0.5h-32l-45 128h-439l-44 -128h-29h-34q-20 0 -45 1q-25 0 -41 9.5t-25.5 23t-13.5 29.5t-4 30v167h911zM163 247q-12 0 -21 -8.5t-9 -21.5t9 -21.5t21 -8.5q13 0 22 8.5t9 21.5t-9 21.5t-22 8.5zM316 123q-8 -26 -14 -48q-5 -19 -10.5 -37t-7.5 -25t-3 -15t1 -14.5
t9.5 -10.5t21.5 -4h37h67h81h80h64h36q23 0 34 12t2 38q-5 13 -9.5 30.5t-9.5 34.5q-5 19 -11 39h-368zM336 498v228q0 11 2.5 23t10 21.5t20.5 15.5t34 6h188q31 0 51.5 -14.5t20.5 -52.5v-227h-327z" />
    

    
    <glyph glyph-name="star-ful" unicode="&#58897;" d="M569.498552 801.408645l110.452601-223.834928 273.26778-40.687678c49.603745-7.397481 65.189721-42.312688 28.735461-80.583317l-199.268416-195.119933 48.854685-284.620339c6.563486-41.200354-33.247218-65.146743-68.225871-41.200354l-249.727645 130.273019L259.392772-67.95341599999995c-34.038234-17.381879-69.038376-6.200212-62.688761 41.458227l47.764863 287.656489L39.10667 460.600609c-39.661302 36.582173-19.049868 69.979818 26.982538 76.094072l281.199427 40.85857c0 0 57.706283 117.0386 110.324688 223.64357C495.927953 872.778112 537.940812 871.730247 569.498552 801.408645z"  horiz-adv-x="1024" />

    
    <glyph glyph-name="exercise" unicode="&#58956;" d="M866.27214222 277.50968889v458.74176c0 68.82076445-56.00824889 124.80398222-120.43832889 124.80398222h-458.44024888c-73.21258667 0-129.19580445-55.98321778-129.19580445-124.80398222v-458.74176c0-59.77088 34.67719111-138.07502222 78.94016-178.24426667l182.12295111-158.31153777c24.71253333-22.42332445 57.65916445-34.75456 92.82218667-34.75456 33.22652445 0 64.75207111 11.21052445 88.82858667 31.55057777l183.39498666 163.21877333c32.56661333 27.50691555 59.82208 74.46528 73.14318222 120.8888889 1.52689778 3.33027555 2.54179555 6.78684445 2.89905778 10.24568888 3.76263111 15.60917333 5.92327111 31.01809778 5.92327111 45.40643556zM800.90794667 736.25031111v-448.59619556l-111.71043556 62.05781334v445.97930666h52.27064889c32.77141333 0 59.43978667-26.66723555 59.43978667-59.43978666zM402.81998222 795.69009778h221.03836445v-435.50378667l-111.50222222-85.50058666-109.53614223 66.48376888v454.52060445zM283.02791111 795.69009778h54.40284444v-450.93546667l-113.86766222-60.73685333v452.23253333c0 32.77255111 26.66837333 59.43978667 59.46595556 59.43978667zM742.12920889 150.90005333l-152.85020444-127.68028444c-21.55861333 17.00864-48.71168 27.25432889-78.30414223 27.25432889-32.23552 0-61.55036445-12.15146667-83.89632-32.00796445l-146.03377777 129.23221334c-17.28739555 15.71157333-33.20263111 41.97376-43.95690667 69.27928888l129.98656 69.48295112 127.66321777-78.43157334c11.08536889-7.3216 25.52604445-7.19530667 36.48398223 0.33109334l115.28988444 88.11747555c2.05937778-0.65991111 4.16881778-1.11843555 6.38179556-1.37329777l135.04967111-75.0239289c-10.98183111-27.43523555-27.65937778-53.82144-45.81262222-69.18030222z"  horiz-adv-x="1024" />

    
    <glyph glyph-name="clock" unicode="&#58902;" d="M512-128c282.29632 0 512 229.70368 512 512s-229.70368 512-512 512-512-229.70368-512-512 229.70368-512 512-512zM512 863.98976c264.66304 0 480.01024-215.32672 480.01024-480.01024s-215.32672-480.01024-480.01024-480.01024-480.01024 215.32672-480.01024 480.01024 215.32672 480.01024 480.01024 480.01024zM641.9456 199.41376c3.13344-3.13344 7.22944-4.66944 11.32544-4.66944s8.192 1.57696 11.32544 4.66944c6.2464 6.2464 6.2464 16.384 0 22.6304l-152.61696 152.576 0 223.17056c0 8.82688-7.168 15.99488-15.99488 15.99488s-15.99488-7.168-15.99488-15.99488l0-229.7856c0-4.25984 1.69984-8.31488 4.66944-11.32544l157.2864-157.24544zM96.01024 384c0-17.67424 14.336-32.01024 32.01024-32.01024s32.01024 14.336 32.01024 32.01024c0 17.67424-14.336 32.01024-32.01024 32.01024s-32.01024-14.336-32.01024-32.01024zM864.01024 384c0-17.67424 14.336-32.01024 32.01024-32.01024s32.01024 14.336 32.01024 32.01024c0 17.67424-14.336 32.01024-32.01024 32.01024s-32.01024-14.336-32.01024-32.01024zM480.01024 768c0-17.67424 14.336-32.01024 32.01024-32.01024s32.01024 14.336 32.01024 32.01024c0 17.67424-14.336 32.01024-32.01024 32.01024s-32.01024-14.336-32.01024-32.01024zM480.01024 0c0-17.67424 14.336-32.01024 32.01024-32.01024s32.01024 14.336 32.01024 32.01024c0 17.67424-14.336 32.01024-32.01024 32.01024s-32.01024-14.336-32.01024-32.01024zM224.01024 640c0-17.67424 14.336-32.01024 32.01024-32.01024s32.01024 14.336 32.01024 32.01024c0 17.67424-14.336 32.01024-32.01024 32.01024s-32.01024-14.336-32.01024-32.01024zM736.01024 128c0-17.67424 14.336-32.01024 32.01024-32.01024s32.01024 14.336 32.01024 32.01024c0 17.67424-14.336 32.01024-32.01024 32.01024s-32.01024-14.336-32.01024-32.01024zM768 640c0-17.67424 14.336-32.01024 32.01024-32.01024s32.01024 14.336 32.01024 32.01024c0 17.67424-14.336 32.01024-32.01024 32.01024s-32.01024-14.336-32.01024-32.01024zM224.01024 128c0-17.67424 14.336-32.01024 32.01024-32.01024s32.01024 14.336 32.01024 32.01024c0 17.67424-14.336 32.01024-32.01024 32.01024s-32.01024-14.336-32.01024-32.01024z"  horiz-adv-x="1024" />

    
    <glyph glyph-name="search" unicode="&#58966;" d="M48.00416-127.97952l671.9968 0c26.459631 0 48.00416 21.544529 48.00416 48.00416l0 240.00032c0 0.327673-0.163837 0.573429-0.184316 0.901102 1.761245 1.126377 3.583928 2.170837 5.304214 3.358653l255.544329-255.544329c3.133377-3.133377 7.229295-4.710306 11.325213-4.710306s8.191836 1.576928 11.325213 4.669347c6.246275 6.246275 6.246275 16.383672 0 22.629947l-253.209656 253.209656c40.447191 37.98964 65.882842 91.769045 65.882842 151.48753 0 73.50125-38.440191 138.114358-96.192636 175.100498 0.040959 0.327673 0.184316 0.573429 0.184316 0.901102l0 79.99328c0 0.552949-0.245755 0.98302-0.286714 1.49501-0.061439 0.737265-0.245755 1.372133-0.409592 2.088918-0.552949 2.273235-1.474531 4.321194-2.887622 6.102918-0.225275 0.286714-0.184316 0.634867-0.409592 0.921582l-255.99488 288.00448c-0.102398 0.102398-0.225275 0.102398-0.327673 0.184316-1.925081 2.088918-4.382632 3.461051-7.126897 4.280234-0.614388 0.184316-1.146857 0.266235-1.781724 0.348153-0.921582 0.163837-1.781724 0.552949-2.744265 0.552949l-447.99104 0c-26.459631 0-48.00416-21.544529-48.00416-48.00416l0-927.99168c0-26.459631 21.544529-48.00416 48.00416-48.00416zM831.98336 336.00608c0-97.052779-78.969301-176.0016-176.0016-176.0016s-176.0016 78.948821-176.0016 176.0016 78.969301 176.0016 176.0016 176.0016 176.0016-78.948821 176.0016-176.0016zM511.98976 837.919882l204.386312-229.924362-188.371273 0c-7.044979 0-15.99456 13.434611-15.99456 24.00208l0 205.922282zM32.0096 847.99584c0 8.826703 7.208816 15.99456 15.99456 15.99456l431.99648 0 0-231.9928c0-25.886202 20.950621-55.9912 48.00416-55.9912l207.99072 0 0-48.02464c-24.636947 10.301234-51.649527 16.035519-79.99328 16.035519-58.817384 0-111.859523-24.636947-149.726285-63.99872l-330.274355 0c-8.826703 0-15.99456-7.167857-15.99456-15.99456s7.167857-15.99456 15.99456-15.99456l305.02302 0c-18.083478-28.118478-29.51109-60.824384-32.193916-96.00832l-272.829103 0c-8.826703 0-15.99456-7.167857-15.99456-15.99456s7.167857-15.99456 15.99456-15.99456l272.788144 0c2.682826-35.163457 14.151397-67.869363 32.193916-96.00832l-304.98206 0c-8.826703 0-15.99456-7.167857-15.99456-15.99456s7.167857-15.99456 15.99456-15.99456l328.00112 0c0.675826 0 1.249255 0.286714 1.925081 0.389112 37.887242-39.587048 91.093218-64.387832 150.074439-64.387832 28.343753 0 55.356333 5.734285 79.99328 16.055999l0-224.067199c0-8.826703-7.208816-15.99456-15.99456-15.99456l-671.9968 0c-8.970061 0-15.99456 7.044979-15.99456 15.99456l0 927.99168zM176.0016 576.0064l191.99616 0c8.826703 0 15.99456 7.167857 15.99456 15.99456s-7.167857 15.99456-15.99456 15.99456l-191.99616 0c-8.826703 0-15.99456-7.167857-15.99456-15.99456s7.167857-15.99456 15.99456-15.99456zM176.0016 64.01664l416.00192 0c8.826703 0 15.99456 7.167857 15.99456 15.99456s-7.167857 15.99456-15.99456 15.99456l-416.00192 0c-8.826703 0-15.99456-7.167857-15.99456-15.99456s7.167857-15.99456 15.99456-15.99456z"  horiz-adv-x="1065" />

    
    <glyph glyph-name="user" unicode="&#58898;" d="M512.476 163.753c-170.169 0-308.118 136.411-308.118 304.681 0 168.271 137.949 304.681 308.118 304.681 170.169 0 308.119-136.411 308.119-304.681C820.594 300.163 682.645 163.753 512.476 163.753L512.476 163.753zM512.476 711.814c-135.713 0-246.12-109.178-246.12-243.381 0-134.202 110.407-243.381 246.12-243.381 135.719 0 246.126 109.179 246.126 243.381C758.602 602.636 648.195 711.814 512.476 711.814L512.476 711.814zM935.867-173.115l-26.164 0c-9.648 0-17.779 6.941-19.384 16.35-2.646 15.426-6.277 30.52-11.142 44.95-24.769 87.686-81.337 164.13-159.104 214.266-63.232-35.203-134.235-53.64-207.597-53.64-73.555 0-144.73 18.537-208.084 53.922-78-50.131-134.75-126.68-159.564-214.549 0 0-4.893-18.172-11.795-46.4-2.136-8.723-10.035-14.9-19.112-14.9L88.133-173.116c-9.415 0-16.693 8.214-15.47 17.452C91.698-12.084 181.099 109.526 305.51 174.385c58.682-40.472 129.996-64.267 206.966-64.267 76.799 0 147.968 23.684 206.584 63.991 124.123-64.932 213.281-186.403 232.277-329.772C952.56-164.901 945.287-173.115 935.867-173.115L935.867-173.115z"  horiz-adv-x="1024" />

    
    <glyph glyph-name="ebook" unicode="&#58901;" d="M682.697195 36.29283299999997L242.160807 36.29283299999997c-12.152784 0-22.025643 9.893324-22.025643 22.026666 0 12.130272 9.872858 22.025643 22.025643 22.025643l440.537412 0c12.130272 0 22.025643-9.895371 22.025643-22.025643C704.723861 46.18615799999998 694.82849 36.29283299999997 682.697195 36.29283299999997zM841.773214 737.675088c-12.955056 0-23.51967-10.543124-23.51967-23.520693l0-705.638185c0-12.95608-10.56666-23.520693-23.521716-23.520693L277.262256-15.00448300000005c-38.911218 0-70.564126 31.650861-70.564126 70.564126 0 38.910195 31.652907 70.563102 70.564126 70.563102l423.382707 0c38.911218 0 70.565149 31.652907 70.565149 70.563102L771.210112 761.196805c0 38.911218-31.653931 70.564126-70.565149 70.564126L230.218824 831.76093c-38.911218 0-70.563102-31.652907-70.563102-70.564126l0-705.637162c0-64.823378 52.785204-117.608581 117.606535-117.608581l517.468548 0c38.909172 0 70.563102 31.653931 70.563102 70.565149L865.293907 714.154395C865.293907 727.131965 854.727247 737.675088 841.773214 737.675088zM230.218824 784.718521l470.426139 0c12.955056 0 23.521716-10.543124 23.521716-23.521716l0-564.510958c0-12.955056-10.56666-23.520693-23.521716-23.520693l-423.382707 0c-26.439162 0-50.90232-8.820899-70.564126-23.566742L206.698131 761.196805C206.698131 774.175397 217.241254 784.718521 230.218824 784.718521z"  horiz-adv-x="1024" />

    
    <glyph glyph-name="bookmarks" unicode="&#58954;" d="M256 768 256-128 576 192 896-128 896 768zM768 896 128 896 128 0 192 64 192 832 768 832z"  horiz-adv-x="1024" />

    
    <glyph glyph-name="arrow-check" unicode="&#59631;" d="M84.448 384.256c0-235.712 191.04-426.784 426.784-426.784s426.784 191.04 426.784 426.784-191.04 426.784-426.784 426.784-426.784-191.04-426.784-426.784zM903.84 384.256c0-216.48-176.128-392.64-392.64-392.64s-392.64 176.16-392.64 392.64 176.16 392.64 392.64 392.64c216.48 0 392.64-176.16 392.64-392.64zM613.088 359.87199999999996l24.128 24.128-193.12 193.12-24.128-24.128 168.992-168.992-168.192-168.192 24.128-24.128 96.416 96.416z"  horiz-adv-x="1024" />

    
    <glyph glyph-name="record-list" unicode="&#58929;" d="M303.999988 436.571439l409.142848 0c13.714285 0 25.142857 11.428571 25.142857 25.142857 0 13.714285-11.428571 25.142857-25.142857 25.142857L303.999988 486.857152c-13.714285 0-25.142857-11.428571-25.142857-25.142857C278.857132 448.00001 290.285703 436.571439 303.999988 436.571439zM303.999988 274.28572799999995l409.142848 0c13.714285 0 25.142857 11.428571 25.142857 25.142857 0 13.714285-11.428571 25.142857-25.142857 25.142857L303.999988 324.57144100000005c-13.714285 0-25.142857-11.428571-25.142857-25.142857C278.857132 285.714299 290.285703 274.28572799999995 303.999988 274.28572799999995zM303.999988 112.00001699999996l409.142848 0c13.714285 0 25.142857 11.428571 25.142857 25.142857 0 13.714285-11.428571 25.142857-25.142857 25.142857L303.999988 162.28573100000006c-13.714285 0-25.142857-11.428571-25.142857-25.142857C278.857132 123.42858899999999 290.285703 112.00001699999996 303.999988 112.00001699999996zM322.285702 635.428577l381.714277 0c18.285714 0 31.999999 13.714285 31.999999 31.999999L735.999978 816.000002c0 4.571428-4.571428 9.142857-9.142857 9.142857l-89.142855 0C612.57141 868.571429 564.571411 896 511.999983 896c-52.571427 0-98.285712-27.428571-123.428569-70.857141L299.42856 825.142859C292.571417 825.142859 290.285703 820.57143 290.285703 816.000002L290.285703 667.428577C290.285703 649.142863 303.999988 635.428577 322.285702 635.428577zM340.571416 774.8571460000001l29.714285 0 36.571428 0 13.714285 0c4.571428 20.571428 16 38.857142 31.999999 50.285713l0 0c16 13.714285 36.571428 20.571428 59.42857 20.571428 22.857142 0 43.42857-6.857143 59.42857-20.571428l0 0c16-13.714285 27.428571-29.714285 31.999999-50.285713l11.428571 0L655.99998 774.8571460000001l31.999999 0 0-79.999998c0-4.571428-4.571428-9.142857-9.142857-9.142857L349.714273 685.71429c-4.571428 0-9.142857 4.571428-9.142857 9.142857L340.571416 774.8571460000001zM939.428545 688.000005c0 59.42857-47.999999 109.714283-109.714283 109.714283l-52.571427 0 0-50.285713 52.571427 0c31.999999 0 59.42857-27.428571 59.42857-59.42857l0-692.571413 0 0 0-9.142857c0-31.999999-27.428571-59.42857-59.42857-59.42857l-635.428557 0c-31.999999 0-59.42857 27.428571-59.42857 59.42857L134.857135 685.71429c0 31.999999 27.428571 59.42857 59.42857 59.42857l52.571427 0L246.857132 795.428574 194.285705 795.428574C134.857135 795.428574 84.571422 747.428575 84.571422 688.000005l0-109.714283c0 0 0 0 0-2.285714s0 0 0-2.285714l0-591.999987c0-61.714284 50.285713-109.714283 109.714283-109.714283l635.428557 0c61.714284 0 109.714283 50.285713 109.714283 109.714283L939.428545 688.000005 939.428545 688.000005z"  horiz-adv-x="1024" />

    
    <glyph glyph-name="refresh-both" unicode="&#58934;" d="M880.090403 344.82476899999995c-11.009751 0-19.931958 8.92323-19.931958 19.931958 0 190.215226-154.756643 344.970846-344.979032 344.970846-74.691119 0-145.766898-23.466458-205.541283-67.871807-8.824993-6.578836-21.318538-4.726651-27.885094 4.110621-6.564509 8.837272-4.722558 21.325701 4.114714 27.89021 66.699098 49.54337 145.993049 75.734892 229.311663 75.734892 212.203006 0 384.843972-172.632779 384.843972-384.835785C900.023384 353.74799900000005 891.100154 344.82476899999995 880.090403 344.82476899999995zM433.609629 567.8103530000001c-2.316765 0-4.668323 0.405229-6.965645 1.2689L262.287705 630.411109l36.415374 171.620729c2.28095 10.767228 12.861936 17.651009 23.63428 15.361873 10.768251-2.28095 17.643845-12.862959 15.358803-23.630187l-29.283953-138.016377 132.169205-49.324382c10.311857-3.846608 15.556301-15.322987 11.7056-25.638937C449.293843 572.762131 441.690678 567.8103530000001 433.609629 567.8103530000001zM509.519506 14.982482000000005c-212.2071 0-384.851135 172.633802-384.851135 384.835785 0 11.009751 8.92323 19.931958 19.931958 19.931958 11.009751 0 19.931958-8.922207 19.931958-19.931958 0-190.214203 154.760736-344.970846 344.986195-344.970846 74.691119 0 145.762805 23.467481 205.533097 67.86362 8.837272 6.564509 21.321608 4.726651 27.885094-4.118807 6.564509-8.837272 4.722558-21.318538-4.114714-27.881001C672.127977 41.16684099999998 592.83505 14.982482000000005 509.519506 14.982482000000005zM706.519252-53.262832c-1.370207 0-2.759857 0.148379-4.157693 0.444115-10.768251 2.28095-17.643845 12.862959-15.358803 23.63121l29.283953 138.016377-132.177392 49.317219c-10.311857 3.846608-15.552208 15.321964-11.7056 25.638937 3.846608 10.31595 15.307637 15.595186 25.64303 11.70253l164.364465-61.323671-36.411281-171.620729C724.010625-46.83135200000004 715.734124-53.262832 706.519252-53.262832z"  horiz-adv-x="1024" />

    
    <glyph glyph-name="wrong" unicode="&#58945;" d="M542.9375 384l365.625 365.625c8.4375 8.4375 8.4375 22.5 0 30.9375s-22.5 8.4375-30.9375 0l-365.625-365.625-365.625 365.625c-8.4375 8.4375-22.5 8.4375-30.9375 0s-8.4375-22.5 0-30.9375l365.625-365.625-365.625-365.625c-8.4375-8.4375-8.4375-22.5 0-30.9375s22.5-8.4375 30.9375 0l365.625 365.625 365.625-365.625c8.4375-8.4375 22.5-8.4375 30.9375 0s8.4375 22.5 0 30.9375L542.9375 384z"  horiz-adv-x="1024" />

    
    <glyph glyph-name="right" unicode="&#58980;" d="M969.6 688c-9.6 9.6-25.6 9.6-35.2 0l-508.8-537.6c-19.2-19.2-48-19.2-70.4-3.2l-265.6 252.8c-9.6 9.6-25.6 9.6-35.2 0-9.6-9.6-9.6-25.6 0-35.2l265.6-252.8c38.4-38.4 102.4-35.2 137.6 3.2l508.8 537.6C979.2 662.4 979.2 678.4 969.6 688z"  horiz-adv-x="1024" />

    
    <glyph glyph-name="star-empty" unicode="&#58987;" d="M785.352203-37.397493000000054c-4.074805 0-8.151657 0.970094-11.833513 3.007497l-261.311471 142.488225L250.942821-34.38897199999997c-8.343015-4.559852-18.527982-3.8814-26.28669 1.599428-7.760754 5.5279-11.640108 14.987343-10.088776 24.347524l47.578622 285.365306L72.563154 466.529645c-6.594185 6.547113-8.971325 16.295128-6.110161 25.122167 2.814092 8.850575 10.379395 15.397688 19.546172 16.949021l285.512662 47.577598 118.529557 236.989529c4.172019 8.391111 12.803607 13.701047 22.165836 13.701047 9.359158 0 17.992793-5.309936 22.163789-13.701047l118.529557-236.989529 285.511639-47.577598c9.217942-1.551332 16.73208-8.051373 19.593244-16.949021 2.813069-8.875135 0.48607-18.575054-6.109138-25.122167L762.264369 276.92226300000004l47.577598-285.365306c1.50119-9.360182-2.37714-18.819624-10.087753-24.347524C795.487028-35.79704200000003 790.394033-37.397493000000054 785.352203-37.397493000000054zM512.206196 161.25284699999997c4.073782 0 8.196683-0.968048 11.880585-3.006474l228.379431-124.545574-41.268916 247.634983c-1.308809 7.90504 1.257643 16.005532 6.932899 21.63167l164.55787 164.555823-250.398934 41.709961c-7.855922 1.308809-14.549368 6.304589-18.140149 13.408381l-101.942787 203.915249-101.991905-203.915249c-3.542686-7.103792-10.234085-12.050454-18.09103-13.408381l-250.40098-41.709961 164.509774-164.555823c5.672186-5.626137 8.244778-13.675464 6.983041-21.63167l-41.273009-247.634983 228.380454 124.545574C504.058632 160.28479900000002 508.132414 161.25284699999997 512.206196 161.25284699999997z"  horiz-adv-x="1024" />

    
    <glyph glyph-name="refresh" unicode="&#59009;" d="M941.296 393.59c-10.421 0-18.87-8.449-18.87-18.87 0-54.245-10.62-106.857-31.565-156.375-20.235-47.838-49.205-90.806-86.108-127.709-36.902-36.904-79.87-65.873-127.709-86.108-49.519-20.945-102.131-31.565-156.376-31.565s-106.856 10.62-156.374 31.565c-47.838 20.235-90.805 49.205-127.707 86.108-36.902 36.904-65.873 79.87-86.107 127.71-20.945 49.518-31.564 102.13-31.564 156.375s10.62 106.857 31.564 156.375c20.234 47.838 49.205 90.805 86.107 127.707 36.902 36.902 79.869 65.873 127.707 86.107 49.518 20.945 102.13 31.564 156.374 31.564 83.052 0 163.645-25.708 230.963-73.027l-98.125-16.535c-10.277-1.732-17.205-11.467-15.472-21.743 1.552-9.217 9.541-15.738 18.586-15.738 1.041 0 2.098 0.086 3.158 0.265l141.802 23.894c10.277 1.732 17.205 11.467 15.473 21.743l-22.016 130.656c-1.732 10.277-11.466 17.203-21.743 15.472-10.277-1.732-17.205-11.467-15.472-21.743l14.234-84.475c-73.386 51.192-161.063 78.972-251.384 78.972-59.322 0-116.881-11.622-171.077-34.545-52.337-22.137-99.336-53.824-139.693-94.179-40.356-40.356-72.042-87.355-94.179-139.692-22.922-54.196-34.544-111.755-34.544-171.077 0-59.322 11.622-116.881 34.545-171.078 22.137-52.337 53.824-99.337 94.179-139.694 40.356-40.356 87.355-72.043 139.693-94.18 54.196-22.924 111.754-34.546 171.077-34.546 59.323 0 116.883 11.622 171.078 34.546 52.337 22.137 99.337 53.824 139.694 94.18 40.356 40.357 72.043 87.357 94.18 139.694 22.924 54.196 34.546 111.755 34.546 171.078-0.001 10.421-8.45 18.869-18.871 18.869z"  horiz-adv-x="1024" />

    
    <glyph glyph-name="wrong-list" unicode="&#58951;" d="M938.6823077 22.100626769999963c0-36.20774798-39.17391189-65.58441472-87.44223175-65.58441472L239.14719005-43.483787949999964c-48.26694997 0-87.44223175 29.37666674-87.44223176 65.58441472L151.70495829 743.4921915699999c0 36.20089742 39.17391189 65.5830437 87.44223176 65.5830437l612.09288476 0c48.26831986 0 87.44223175-29.38214627 87.44223175-65.5830437L938.6823077 22.100626769999963 938.6823077 22.100626769999963 938.6823077 22.100626769999963zM20.54160953 695.80066361l0-89.43291847 65.58030393 0 0-178.8576165L20.54160953 427.5101275l0-89.42743779 65.58030393 0 0-178.86172729L20.54160953 159.22096241999998l0-89.4274378 65.58030393 0c0-178.85487673 0-178.85487673 131.16197774-178.85487673l655.81400064 0c131.16197774 0 131.16197774 0 131.16197774 178.85487673L1004.25987072 695.80066361c0 178.85487673 0 178.85487673-131.16197774 178.85487673L217.28389234 874.6555392c-131.16197774 0-131.16197774 0-131.16197775-178.85487673L20.54160953 695.80066361 20.54160953 695.80066361zM774.72675157 694.30730638l32.79357725 49.18488519 65.57756416 0-65.57756416-98.36977152 65.57756416-98.37662094-65.57756416 0-32.79357725 49.19173575-32.79220736-49.19173575-65.57756416 0 65.57756416 98.37662094-65.57756416 98.36977152 65.57756416 0L774.72675157 694.30730638 774.72675157 694.30730638zM774.72675157 431.98060885l32.79357725 49.18625508 65.57756416 0-65.57756416-98.3711414 65.57756416-98.37525106-65.57756416 0-32.79357725 49.19036586L741.94002489 284.42047261000005l-65.5830437 0 65.5830437 98.37525105-65.5830437 98.37114141 65.5830437 0L774.72675157 431.98060885 774.72675157 431.98060885 774.72675157 431.98060885zM774.72675157 169.65665336999996l32.79357725 49.1835153 65.57756416 0-65.57756416-98.36977152 65.57756416-98.3711414-65.57756416 0-32.79357725 49.18351531-32.79220736-49.18351531-65.57756416 0 65.57756416 98.3711414-65.57756416 98.36977152 65.57756416 0L774.72675157 169.65665336999996 774.72675157 169.65665336999996 774.72675157 169.65665336999996zM587.35151901 677.91462741L306.2879835 677.91462741c-12.92644579 0-23.41967758-14.69107314-23.41967758-32.79220736 0-18.13264498 10.49460281-32.79220736 23.41967758-32.79220736l281.06353437 0c12.93192533 0 23.42652814 14.65408171 23.42652814 32.79220736C610.77804715 663.2221843899999 600.28481422 677.91462741 587.35151901 677.91462741L587.35151901 677.91462741zM587.35151901 153.25712383999996L306.2879835 153.25712383999996c-12.92644579 0-23.41967758-14.65408171-23.41967758-32.78672669 0-18.13812565 10.49460281-32.79357725 23.41967758-32.79357724l281.06353437 0c12.93192533 0 23.42652814 14.65408171 23.42652814 32.79357724C610.77804715 138.60304212999995 600.28481422 153.25712383999996 587.35151901 153.25712383999996L587.35151901 153.25712383999996zM587.35151901 415.58930091L306.2879835 415.58930091c-12.92644579 0-23.41967758-14.69244302-23.41967758-32.79357725 0-18.13127509 10.49460281-32.79083747 23.41967758-32.79083747l281.06353437 0c12.93192533 0 23.42652814 14.65271182 23.42652814 32.79083747C610.77804715 400.89685789 600.28481422 415.58930091 587.35151901 415.58930091L587.35151901 415.58930091zM587.35151901 415.58930091"  horiz-adv-x="1024" />

    
    <glyph glyph-name="bookmarkremove" unicode="&#59063;" d="M725.333333 768C772.266667 768 810.666667 729.6 810.666667 682.666667L810.666667 0 512 128 213.333333 0 213.333333 682.666667C213.333333 730.026667 251.733333 768 298.666667 768L725.333333 768M348.586667 529.92 451.84 426.666667 348.586667 323.84 409.173333 263.253333 512 366.506667 614.826667 263.253333 675.413333 323.84 572.16 426.666667 675.413333 529.92 614.826667 590.08 512 487.253333 409.173333 590.08 348.586667 529.92Z"  horiz-adv-x="1024" />

    
    <glyph glyph-name="check-off" unicode="&#59210;" d="M805.73202836-2.6358619600000566l-587.46535126 0c-51.25724286 0-92.90253906 41.64659074-92.90253906 92.90253906l0 587.51972187c0 51.25724286 41.64659074 92.90253906 92.90253906 92.90253907l587.46535126 0c51.25724286 0 92.90253906-41.64659074 92.90253907-92.90253907l0-587.51972187c0-51.25724286-41.64659074-92.90253906-92.90253907-92.90253906zM218.26797164 715.4017975300001c-20.76827749 0-37.66976916-16.95715682-37.66976917-37.66976917l0-587.51972187c0-20.71261235 16.90149168-37.66976916 37.66976917-37.66976916l587.46535126 0c20.71261235 0 37.66976916 16.95715682 37.66976917 37.66976916l0 587.51972187c0 20.71261235-16.95715682 37.66976916-37.66976917 37.66976917l-587.46535126 0z"  horiz-adv-x="1024" />

    
    <glyph glyph-name="check-on" unicode="&#58941;" d="M810.666667 768L213.333333 768C166.4 768 128 729.6 128 682.666667l0-597.333333c0-46.933333 38.4-85.333333 85.333333-85.333333l597.333333 0c46.933333 0 85.333333 38.4 85.333333 85.333333L896 682.666667C896 729.6 857.6 768 810.666667 768zM426.666667 170.66666699999996l-213.333333 213.333333 59.733333 59.733333 153.6-153.6 324.266667 324.266667L810.666667 554.666667 426.666667 170.66666699999996z"  horiz-adv-x="1024" />

    
    <glyph glyph-name="block-exam" unicode="&#58969;" d="M234.72313344 753.60546475l-25.14877326-67.17982493-67.17982493 0 54.6054383-42.03105166-25.14877326-75.67917853 62.98836195 46.2225135 62.98836195-46.2225135-25.14877326 75.67917853 54.6054383 42.03105166-67.17982493 0L234.72313344 753.60546475zM234.72313344 476.38681259l-25.14877326-67.17982493-67.17982493 0 54.6054383-42.03105166-25.14877326-75.67917853 62.98836195 46.2225135 62.98836195-46.2225135-25.14877326 75.67917853 54.6054383 42.03105166-67.17982493 0L234.72313344 476.38681259zM259.9883355 131.98833549999995l-25.14877326 67.17982493-25.14877326-67.17982493-67.17982493 0 54.6054383-42.03105166-25.14877326-75.56274859 62.98836195 46.2225135 62.98836195-46.2225135-25.14877326 75.56274859 54.6054383 42.03105166L259.9883355 131.98833549999995zM927.82797824 892.27300523l-831.65595648 0c-50.99612274 0-92.44502699-41.33247431-92.44502699-92.44502699l0-831.65595648c0-51.11255267 41.33247431-92.44502699 92.44502699-92.44502699l831.65595648 0c50.99612274 0 92.44502699 41.33247431 92.44502699 92.44502699l0 831.65595648C1020.27300523 850.82410098 978.82410098 892.27300523 927.82797824 892.27300523M974.05049173-31.827978239999993c0-25.49806194-20.72445155-46.22251349-46.22251349-46.22251349l-831.65595648 0c-25.49806194 0-46.22251349 20.72445155-46.22251349 46.22251349l0 831.65595648c0 25.49806194 20.60802275 46.22251349 46.22251349 46.22251349l831.65595648 0c25.49806194 0 46.22251349-20.72445155 46.22251349-46.22251349L974.05049173-31.827978239999993 974.05049173-31.827978239999993zM858.5524224 684.21347897l-415.88619264 0c-12.80724537 0-23.05304235-10.36222578-23.05304235-23.05304235 0-12.80724537 10.36222578-23.05304235 23.05304235-23.05304235l415.88619264 0c12.80724537 0 23.05304235 10.36222578 23.05304235 23.05304235C881.60546475 673.9676831300001 871.24323897 684.21347897 858.5524224 684.21347897M858.5524224 129.89260459000002l-415.88619264 0c-12.80724537 0-23.05304235-10.36222578-23.05304235-23.16947115s10.36222578-23.05304235 23.05304235-23.05304235l415.88619264 0c12.80724537 0 23.05304235 10.36222578 23.05304235 23.05304235C881.60546475 119.53037881 871.24323897 129.89260459000002 858.5524224 129.89260459000002M858.5524224 406.99482681l-415.88619264 0c-12.80724537 0-23.05304235-10.36222578-23.05304235-23.05304235 0-12.80724537 10.36222578-23.05304235 23.05304235-23.05304235l415.88619264 0c12.80724537 0 23.05304235 10.36222578 23.05304235 23.05304235C881.60546475 396.74903097 871.24323897 406.99482681 858.5524224 406.99482681"  horiz-adv-x="1024" />

    
    <glyph glyph-name="answer-list" unicode="&#58916;" d="M525.75744 283.44320000000005l210.64192 0 0-52.6592-210.64192 0 0 52.6592ZM789.0432 836.36224L236.14464 836.36224c-57.26208 0-78.99136-19.75808-78.99136-77.84448l0-486.51264 0-49.7152 0-8.66816 0-9.15968 5.78048-4.60288 243.74784-258.688 33.07008 0c0.34304 0 8.54528 0 22.13888 0 76.75904 0 327.15264 0 327.15264 0 62.96576-0.60928 78.99648 34.85696 78.99648 77.84448L868.03968 758.51264C867.4304 810.26048 859.75552 836.36224 789.0432 836.36224zM394.112 38.74303999999995L236.1344 204.45695999999998l131.65056 0c21.8112 0 26.33216-1.39776 26.33216-22.89152L394.11712 38.74303999999995zM815.3856 20.15232000000003c0-21.49376-4.52096-26.32704-26.33728-26.32704L446.7712-6.174719999999979l0 184.30464c0 42.98752-9.04192 78.98624-52.6592 78.98624L209.81248 257.11616000000004 209.81248 757.3708799999999c0 21.49888 4.51584 26.33216 26.33216 26.33216l552.9088 0c21.82144 0 26.33728-4.8384 26.33728-26.33216L815.39072 20.15232000000003zM288.79872 646.94784l447.59552 0 0-65.1008-447.59552 0 0 65.1008ZM289.65376 542.8428799999999l447.59552 0 0-65.1008-447.59552 0 0 65.1008ZM525.75744 419.48672l210.64192 0 0-62.8992-210.64192 0 0 62.8992Z"  horiz-adv-x="1024" />

    
    <glyph glyph-name="arrow-up" unicode="&#58932;" d="M238.304106 261.815731L508.26286 531.7735749999999 778.225255 261.815731Z"  horiz-adv-x="1024" />

    
    <glyph glyph-name="arrow-down" unicode="&#58933;" d="M778.225255 497.187283L508.266501 227.22943799999996 238.304106 497.187283Z"  horiz-adv-x="1024" />

    
    <glyph glyph-name="examineandapprove" unicode="&#58960;" d="M664.5248 690.048 226.944 690.048c-10.5984 0-19.2-8.6016-19.2-19.2s8.6016-19.2 19.2-19.2l437.6064 0c10.5984 0 19.2 8.6016 19.2 19.2S675.1232 690.048 664.5248 690.048zM683.7248 533.248c0 10.5984-8.6016 19.2-19.2 19.2L226.944 552.448c-10.5984 0-19.2-8.6016-19.2-19.2s8.6016-19.2 19.2-19.2l437.6064 0C675.1232 514.048 683.7248 522.6496 683.7248 533.248zM226.9184 414.848c-10.5984 0-19.2-8.6016-19.2-19.2s8.6016-19.2 19.2-19.2l280.832 0c10.5984 0 19.2 8.6016 19.2 19.2s-8.6016 19.2-19.2 19.2L226.9184 414.848zM446.9248 277.248 226.9184 277.248c-10.5984 0-19.2-8.6016-19.2-19.2s8.6016-19.2 19.2-19.2l220.0064 0c10.5984 0 19.2 8.6016 19.2 19.2S457.5232 277.248 446.9248 277.248zM876.2624 81.2544l-49.152 0-95.9232 134.2208c39.4752 13.9008 67.9936 51.1744 67.9936 95.3344 0 55.9616-45.4912 101.4784-101.4528 101.4784s-101.4528-45.5168-101.4528-101.4784c0-44.16 28.544-81.4336 67.9936-95.3344l-95.9488-134.2208-49.1264 0c-24.704 0-44.8-20.096-44.8-44.8l0-72.1664c0-24.704 20.096-44.8 44.8-44.8l357.0432 0c24.704 0 44.8 20.096 44.8 44.8l0 72.1664C921.0624 61.1584 900.9664 81.2544 876.2624 81.2544zM634.6752 310.8096c0 34.7648 28.2624 63.0784 63.0528 63.0784s63.0528-28.288 63.0528-63.0784c0-34.56-27.9552-62.6688-62.464-63.0016-0.4096 0-0.768 0-1.1776 0C662.656 248.1408 634.6752 276.224 634.6752 310.8096zM691.84 187.9552l11.2896 0.7168 76.7744-107.4176-164.352 0L691.84 187.9552zM882.6624-35.7376c0-3.4816-2.9184-6.4-6.4-6.4L519.2192-42.1376c-3.4816 0-6.4 2.9184-6.4 6.4l0 72.1664c0 3.4816 2.9184 6.4 6.4 6.4l59.0336 0 239.0016 0 0.512 0 58.5216 0c3.4816 0 6.4-2.9184 6.4-6.4L882.688-35.7376zM136.5248 44.8 136.5248 796.8c0 3.4816 2.9184 6.4 6.4 6.4l611.2 0c3.4816 0 6.4-2.9184 6.4-6.4l0-361.1904c14.4128-7.2704 27.3664-16.9472 38.4-28.544L798.9248 796.8c0 24.704-20.096 44.8-44.8 44.8L142.9248 841.6c-24.704 0-44.8-20.096-44.8-44.8L98.1248 44.8c0-24.704 20.096-44.8 44.8-44.8l293.0688 0 0 36.4544c0 0.6656 0.1792 1.28 0.2048 1.9456L142.9248 38.4C139.4688 38.4 136.5248 41.3184 136.5248 44.8z"  horiz-adv-x="1024" />

    
    <glyph glyph-name="delete" unicode="&#58903;" d="M927.282768 657.679428c0-12.82314-10.395508-23.218648-23.218647-23.218648H119.106532c-12.82314 0-23.218648 10.395508-23.218647 23.218648s10.395508 23.218648 23.218647 23.218647h784.957589c12.82314 0 23.218648-10.395508 23.218647-23.218647zM230.369079 577.3955559999999c12.82314 0 23.218648-10.395508 23.218647-23.218648v-563.798358c0-12.82314-10.395508-23.218648-23.218647-23.218648s-23.218648 10.395508-23.218648 23.218648V554.176908c0 12.82314 10.395508 23.218648 23.218648 23.218648zM794.167437 577.3955559999999c12.82314 0 23.218648-10.395508 23.218648-23.218648v-563.798358c0-12.82314-10.395508-23.218648-23.218648-23.218648s-23.218648 10.395508-23.218647 23.218648V554.176908c-0.001024 12.82314 10.394484 23.218648 23.218647 23.218648zM370.654679 495.593262c12.82314 0 23.218648-10.395508 23.218647-23.218648v-381.546771c0-12.82314-10.395508-23.218648-23.218647-23.218647s-23.218648 10.395508-23.218648 23.218647V472.374614c0 12.82314 10.395508 23.218648 23.218648 23.218648zM512.268258 495.593262c12.82314 0 23.218648-10.395508 23.218647-23.218648v-381.546771c0-12.82314-10.395508-23.218648-23.218647-23.218647s-23.218648 10.395508-23.218648 23.218647V472.374614c0 12.82314 10.395508 23.218648 23.218648 23.218648zM653.880813 495.593262c12.82314 0 23.218648-10.395508 23.218648-23.218648v-381.546771c0-12.82314-10.395508-23.218648-23.218648-23.218647s-23.218648 10.395508-23.218647 23.218647V472.374614c0 12.82314 10.395508 23.218648 23.218647 23.218648zM207.150431-9.621449999999982c0 12.82314 10.395508 23.218648 23.218648 23.218647h563.798358c12.82314 0 23.218648-10.395508 23.218648-23.218647s-10.395508-23.218648-23.218648-23.218648H230.369079c-12.82314 0-23.218648 10.395508-23.218648 23.218648zM611.201177 754.1642380000001c15.864079 0 28.770154-12.906075 28.770154-28.770154v-44.497032H384.564161v44.497032c0 15.864079 12.906075 28.770154 28.770154 28.770154H611.201177m0 46.438319H413.334315c-41.535956 0-75.207449-33.671493-75.207449-75.207449v-90.934328h348.282784v90.934328c0 41.535956-33.671493 75.207449-75.208473 75.207449z"  horiz-adv-x="1024" />

    
    <glyph glyph-name="setting" unicode="&#58947;" d="M571.738192 839.516014v-90.746078a27.330961 27.330961 0 0 1 20.665851-26.503744 342.635502 342.635502 0 0 0 100.093267-43.059018 27.330961 27.330961 0 0 1 33.974206 3.749808l65.382947 65.382947 84.485466-84.485466-67.281538-67.281538a27.330961 27.330961 0 0 1-4.190747-33.252669 342.365836 342.365836 0 0 0 39.239972-98.329509 27.330961 27.330961 0 0 1 26.645864-21.252555H967.516014v-119.476384h-98.661124a27.330961 27.330961 0 0 1-26.507388-20.665851 342.53711 342.53711 0 0 0-40.238463-95.578192 27.330961 27.330961 0 0 1 3.9721-33.613438l70.25879-70.25879-84.485466-84.485466-70.25879 70.25879a27.330961 27.330961 0 0 1-33.613438 3.9721 342.53711 342.53711 0 0 0-95.578192-40.238463 27.330961 27.330961 0 0 1-20.662207-26.507388V-71.516014h-119.480028v96.762534a27.330961 27.330961 0 0 1-21.252555 26.645864 342.365836 342.365836 0 0 0-98.329509 39.239972 27.330961 27.330961 0 0 1-33.252669-4.190747L232.145537 19.660071 147.660071 104.145537l65.382947 65.382947a27.330961 27.330961 0 0 1 3.753452 33.974206 342.635502 342.635502 0 0 0-43.062662 100.093267 27.330961 27.330961 0 0 1-26.503744 20.662207H56.483986v119.480028h88.847487a27.330961 27.330961 0 0 1 26.645865 21.252555 342.453295 342.453295 0 0 0 41.998577 102.906534 27.330961 27.330961 0 0 1-3.9721 33.613438L147.660071 663.854463 232.145537 748.339929l62.343744-62.343744a27.330961 27.330961 0 0 1 33.613438-3.9721 342.453295 342.453295 0 0 0 102.910178 41.998577 27.330961 27.330961 0 0 1 21.245267 26.645865V839.516014h119.480028z m-253.412669-100.053181L251.473993 806.318007a27.330961 27.330961 0 0 1-38.653267 0L89.681993 683.182918a27.330961 27.330961 0 0 1 0-38.653267l66.855174-66.858818a396.991317 396.991317 0 0 1-32.381722-79.270719H29.153025a27.330961 27.330961 0 0 1-27.330961-27.330961v-174.138306a27.330961 27.330961 0 0 1 27.330961-27.330961h97.367459a397.184456 397.184456 0 0 1 32.826306-76.461096L89.681993 123.470349a27.330961 27.330961 0 0 1 0-38.653267l123.135089-123.135089a27.330961 27.330961 0 0 1 38.653267 0l72.026192 72.026192a396.907502 396.907502 0 0 1 74.103345-29.63405V-98.846975a27.330961 27.330961 0 0 1 27.330961-27.330961h174.138306a27.330961 27.330961 0 0 1 27.330961 27.330961v105.282505a397.089708 397.089708 0 0 1 71.355672 30.020328l74.777509-74.777509a27.330961 27.330961 0 0 1 38.649623 0l123.135089 123.138733a27.330961 27.330961 0 0 1 0 38.653267l-74.773865 74.773865a397.089708 397.089708 0 0 1 30.020328 71.352028H994.846975a27.330961 27.330961 0 0 1 27.330961 27.330961v174.14195a27.330961 27.330961 0 0 1-27.330961 27.330961h-102.92111a396.907502 396.907502 0 0 1-29.63405 74.103345l72.026192 72.026192a27.330961 27.330961 0 0 1 0 38.653267L811.182918 806.318007a27.330961 27.330961 0 0 1-38.653267 0l-69.668441-69.664797a397.184456 397.184456 0 0 1-76.461096 32.826306V866.846975a27.330961 27.330961 0 0 1-27.330961 27.330961h-174.138306a27.330961 27.330961 0 0 1-27.330961-27.330961v-95.00242a396.991317 396.991317 0 0 1-79.270719-32.381722zM659.849566 246.638235A208.859559 208.859559 0 0 1 716.071174 389.466192c0 115.722932-93.814434 209.537367-209.537366 209.537367S296.996441 505.189125 296.996441 389.466192s93.814434-209.537367 209.537367-209.537366a27.330961 27.330961 0 1 1 0 54.661921c-85.534975 0-154.875445 69.34047-154.875445 154.875445s69.34047 154.875445 154.875445 154.875445 154.875445-69.34047 154.875445-154.875445a154.208569 154.208569 0 0 0-41.546705-105.563103 27.330961 27.330961 0 0 1 39.987018-37.264854z"  horiz-adv-x="1024" />

    
    <glyph glyph-name="radio-on" unicode="&#59066;" d="M512 597.333333c-119.466667 0-213.333333-93.866667-213.333333-213.333333s93.866667-213.333333 213.333333-213.333333 213.333333 93.866667 213.333333 213.333333-93.866667 213.333333-213.333333 213.333333z m0 213.333334C277.333333 810.666667 85.333333 618.666667 85.333333 384s192-426.666667 426.666667-426.666667 426.666667 192 426.666667 426.666667S746.666667 810.666667 512 810.666667z m0-768c-187.733333 0-341.333333 153.6-341.333333 341.333333s153.6 341.333333 341.333333 341.333333 341.333333-153.6 341.333333-341.333333-153.6-341.333333-341.333333-341.333333z"  horiz-adv-x="1024" />

    
    <glyph glyph-name="bookmark-plus" unicode="&#58976;" d="M725.333333 768a85.333333 85.333333 0 0 0 85.333334-85.333333v-682.666667l-298.666667 128-298.666667-128V682.666667a85.333333 85.333333 0 0 0 85.333334 85.333333h426.666666m-256-170.666667v-85.333333H384v-85.333333h85.333333v-85.333334h85.333334v85.333334h85.333333V512h-85.333333V597.333333h-85.333334z"  horiz-adv-x="1024" />

    
    <glyph glyph-name="radio-off" unicode="&#59498;" d="M512 42.66666699999996a341.333333 341.333333 0 0 0-341.333333 341.333333 341.333333 341.333333 0 0 0 341.333333 341.333333 341.333333 341.333333 0 0 0 341.333333-341.333333 341.333333 341.333333 0 0 0-341.333333-341.333333m0 768A426.666667 426.666667 0 0 1 85.333333 384a426.666667 426.666667 0 0 1 426.666667-426.666667 426.666667 426.666667 0 0 1 426.666667 426.666667A426.666667 426.666667 0 0 1 512 810.666667z"  horiz-adv-x="1024" />

    
    <glyph glyph-name="notice" unicode="&#58891;" d="M891.733333 98.133333L789.333333 241.06666700000005V448c0 123.733333-81.066667 228.266667-194.133333 264.533333 2.133333 4.266667 2.133333 8.533333 2.133333 12.8 0 46.933333-38.4 85.333333-85.333333 85.333334s-85.333333-38.4-85.333333-85.333334c0-4.266667 0-8.533333 2.133333-12.8C315.733333 676.266667 234.666667 571.733333 234.666667 448v-206.933333l-102.4-142.933334c-4.266667-6.4-4.266667-14.933333-2.133334-21.333333 4.266667-8.533333 10.666667-12.8 19.2-12.8h236.8c10.666667-59.733333 61.866667-106.666667 125.866667-106.666667s115.2 46.933333 125.866667 106.666667H874.666667c8.533333 0 14.933333 4.266667 19.2 10.666667 4.266667 8.533333 2.133333 17.066667-2.133334 23.466666zM469.333333 725.333333c0 23.466667 19.2 42.666667 42.666667 42.666667s42.666667-19.2 42.666667-42.666667v-4.266666c-14.933333 2.133333-27.733333 4.266667-42.666667 4.266666s-27.733333-2.133333-42.666667-4.266666V725.333333z m42.666667-725.333333c-40.533333 0-72.533333 27.733333-83.2 64h164.266667c-8.533333-36.266667-40.533333-64-81.066667-64zM189.866667 106.66666699999996l83.2 115.2c2.133333 4.266667 4.266667 8.533333 4.266666 12.8V448c0 130.133333 104.533333 234.666667 234.666667 234.666667s234.666667-104.533333 234.666667-234.666667v-213.333333c0-4.266667 2.133333-8.533333 4.266666-12.8l83.2-115.2H189.866667z"  horiz-adv-x="1024" />

    
    <glyph glyph-name="business_card" unicode="&#59269;" d="M800 8.53333299999997H147.2c-46.933333 0-85.333333 38.4-85.333333 85.333334V471.466667c0 46.933333 38.4 85.333333 85.333333 85.333333h652.8c46.933333 0 85.333333-38.4 85.333333-85.333333v-377.6c0-46.933333-38.4-85.333333-85.333333-85.333334zM147.2 514.133333c-23.466667 0-42.666667-19.2-42.666667-42.666666v-377.6c0-23.466667 19.2-42.666667 42.666667-42.666667h652.8c23.466667 0 42.666667 19.2 42.666667 42.666667V471.466667c0 23.466667-19.2 42.666667-42.666667 42.666666H147.2zM908.8 215.46666700000003h-42.666667c-12.8 0-21.333333 8.533333-21.333333 21.333333s8.533333 21.333333 21.333333 21.333333h42.666667c8.533333 0 21.333333 17.066667 21.333333 42.666667V676.266667c0 23.466667-19.2 42.666667-42.666666 42.666666H234.666667c-23.466667 0-42.666667-19.2-42.666667-42.666666v-134.4c0-12.8-8.533333-21.333333-21.333333-21.333334s-21.333333 8.533333-21.333334 21.333334v134.4c0 46.933333 38.4 85.333333 85.333334 85.333333h652.8c46.933333 0 85.333333-38.4 85.333333-85.333333V298.66666699999996c-2.133333-46.933333-29.866667-83.2-64-83.2zM219.733333 386.133333m-32 0a32 32 0 1 1 64 0 32 32 0 1 1-64 0ZM742.4 364.79999999999995H354.133333c-12.8 0-21.333333 8.533333-21.333333 21.333333s8.533333 21.333333 21.333333 21.333334h388.266667c12.8 0 21.333333-8.533333 21.333333-21.333334s-10.666667-21.333333-21.333333-21.333333zM742.4 215.46666700000003H354.133333c-12.8 0-21.333333 8.533333-21.333333 21.333333s8.533333 21.333333 21.333333 21.333333h388.266667c12.8 0 21.333333-8.533333 21.333333-21.333333s-10.666667-21.333333-21.333333-21.333333z"  horiz-adv-x="1024" />

    
    <glyph glyph-name="point-exam" unicode="&#58899;" d="M385.22285823 502.45773504h472.11031485v-73.21810092H385.22285823zM385.22285823 344.51713907h472.11031485v-73.21810096H385.22285823zM385.22285823 186.57654306999996h274.56787852v-73.2181009h-274.56787852zM933.00408041 878.22218132H90.99591959c-40.37063039 0-73.21810095-32.84747054-73.21810091-73.21810091v-842.00816082c0-40.37063039 32.84747054-73.21810095 73.21810091-73.21810091h842.00816082c40.37063039 0 73.21810095 32.84747054 73.21810091 73.21810091V805.00408041c0 40.37063039-32.84747054 73.21810095-73.21810091 73.21810091z m-842.00816082-73.21810091h168.09045525v-842.00816082H90.99591959V805.00408041z m841.89833365-842.00816082H332.30447577V805.00408041h324.45686205v-219.65430284l77.79423224 64.06583833 77.79423225-64.06583833V805.00408041H933.00408041l-0.10982717-842.00816082z m0.10982717-36.60905046v36.60905046h0.00915224l-0.00915224-36.60905046z"  horiz-adv-x="1024" />

    
    <glyph glyph-name="simple-exam" unicode="&#58930;" d="M128 768a64 64 0 0 1-64-64v-704a64 64 0 0 1 64-64h768a64 64 0 0 1 64 64V704a64 64 0 0 1-64 64H128z m0 64h768a128 128 0 0 0 128-128v-704a128 128 0 0 0-128-128H128a128 128 0 0 0-128 128V704a128 128 0 0 0 128 128zM960 608a32 32 0 1 0 0-64H64a32 32 0 0 0 0 64h896zM288 864a32 32 0 0 0 64 0v-128a32 32 0 0 0-64 0v128zM672 864a32 32 0 1 0 64 0v-128a32 32 0 1 0-64 0v128zM832 384a32 32 0 1 0 0-64H448a32 32 0 0 0 0 64h384zM297.088 419.136a32 32 0 0 0 45.888-44.672l-74.688-76.8a32 32 0 0 0-45.888 0l-53.312 54.912a32 32 0 1 0 45.888 44.608l30.4-31.296 51.712 53.248zM832 192a32 32 0 1 0 0-64H448a32 32 0 1 0 0 64h384zM297.088 227.13599999999997a32 32 0 1 0 45.888-44.672l-74.688-76.8a32 32 0 0 0-45.888 0l-53.312 54.912a32 32 0 0 0 45.888 44.608l30.4-31.296 51.712 53.248z"  horiz-adv-x="1024" />

    
    <glyph glyph-name="answer-card" unicode="&#58948;" d="M128 832a64 64 0 0 1-64-64v-768a64 64 0 0 1 64-64h768a64 64 0 0 1 64 64V768a64 64 0 0 1-64 64H128z m0 64h768a128 128 0 0 0 128-128v-768a128 128 0 0 0-128-128H128a128 128 0 0 0-128 128V768a128 128 0 0 0 128 128zM284.416 635.456a32 32 0 1 0 0-64H170.688a32 32 0 1 0 0 64h113.728zM568.896 635.456a32 32 0 0 0 0-64H455.04a32 32 0 1 0 0 64H568.96zM853.312 635.456a32 32 0 1 0 0-64h-113.728a32 32 0 1 0 0 64h113.728zM284.416 416a32 32 0 1 0 0-64H170.688a32 32 0 1 0 0 64h113.728zM568.896 416a32 32 0 0 0 0-64H455.04a32 32 0 0 0 0 64H568.96zM853.312 416a32 32 0 1 0 0-64h-113.728a32 32 0 1 0 0 64h113.728zM284.416 196.54399999999998a32 32 0 0 0 0-64H170.688a32 32 0 1 0 0 64h113.728zM568.896 196.54399999999998a32 32 0 0 0 0-64H455.04a32 32 0 1 0 0 64H568.96zM853.312 196.54399999999998a32 32 0 0 0 0-64h-113.728a32 32 0 1 0 0 64h113.728z"  horiz-adv-x="1024" />

    
    <glyph glyph-name="exam" unicode="&#58999;" d="M866.56-64v64H896a64 64 0 0 1 64 64V768a64 64 0 0 1-64 64H128a64 64 0 0 1-64-64v-704a64 64 0 0 1 64-64h622.912v-64H128a128 128 0 0 0-128 128V768a128 128 0 0 0 128 128h768a128 128 0 0 0 128-128v-704a128 128 0 0 0-128-128h-29.44z m0 0v64H896a64 64 0 0 1 64 64V768a64 64 0 0 1-64 64H128a64 64 0 0 1-64-64v-704a64 64 0 0 1 64-64h622.912v-64H128a128 128 0 0 0-128 128V768a128 128 0 0 0 128 128h768a128 128 0 0 0 128-128v-704a128 128 0 0 0-128-128h-29.44zM284.416 654.912a32 32 0 1 0 0-64H170.688a32 32 0 1 0 0 64h113.728zM568.896 654.912a32 32 0 1 0 0-64H455.04a32 32 0 0 0 0 64H568.96zM853.312 654.912a32 32 0 1 0 0-64h-113.728a32 32 0 1 0 0 64h113.728zM284.416 450.112a32 32 0 1 0 0-64H170.688a32 32 0 1 0 0 64h113.728zM568.896 450.112a32 32 0 1 0 0-64H455.04a32 32 0 0 0 0 64H568.96zM284.416 245.312a32 32 0 1 0 0-64H170.688a32 32 0 0 0 0 64h113.728zM568.896 245.312a32 32 0 1 0 0-64H455.04a32 32 0 0 0 0 64H568.96zM801.024 422.4a54.208 54.208 0 0 1-54.208-54.208v-335.744l54.208-82.24 54.208 82.24V368.192a54.208 54.208 0 0 1-54.208 54.208z m0 64c65.28 0 118.208-52.928 118.208-118.208v-335.744a64 64 0 0 0-10.56-35.2l-54.208-82.24a64 64 0 0 0-106.88 0l-54.208 82.24a64 64 0 0 0-10.56 35.2V368.192c0 65.28 52.928 118.208 118.208 118.208z"  horiz-adv-x="1024" />

    
    <glyph glyph-name="bookmark" unicode="&#59163;" d="M713.142857 603.4285709999999a18.285714 18.285714 0 1 0 36.571429 0v-548.571428a18.285714 18.285714 0 0 0-28.416-15.213714L512 179.16342899999995l-209.298286-139.52A18.285714 18.285714 0 0 0 274.285714 54.85714299999995V713.142857a18.285714 18.285714 0 0 0 18.285715 18.285714h438.857142a18.285714 18.285714 0 1 0 0-36.571428H310.857143v-605.842286l191.012571 127.341714a18.285714 18.285714 0 0 0 20.260572 0l191.012571-127.341714V603.4285709999999zM402.285714 512a18.285714 18.285714 0 1 0 0 36.571429h219.428572a18.285714 18.285714 0 1 0 0-36.571429h-219.428572z m0-73.142857a18.285714 18.285714 0 1 0 0 36.571428h146.285715a18.285714 18.285714 0 1 0 0-36.571428h-146.285715z"  horiz-adv-x="1024" />

    
    <glyph glyph-name="angle-left" unicode="&#58959;" d="M273.066667 406.755556L657.066667 787.91111099c11.377778 11.377778 28.444444 11.377778 39.822222 1e-8 11.377778-11.377778 11.377778-28.444444 0-39.822222l-344.177778-341.333333 344.177778-344.177778c11.377778-11.377778 11.377778-28.444444 0-39.822222s-28.444444-11.377778-39.822222 0L273.066667 406.755556z"  horiz-adv-x="1024" />

    
    <glyph glyph-name="history" unicode="&#58908;" d="M679 558.2c-155.2 0-281.3-127-281.3-283.1C397.7 119 523.9-8 679-8c155.2 0 281.3 127 281.3 283.1 0.1 156-126.2 283.1-281.3 283.1z m0-513.1c-126 0-228.5 103.2-228.5 230s102.5 230 228.5 230 228.5-103.2 228.5-230c0.1-126.8-102.4-230-228.5-230zM99 146.20000000000005c-9.3 0-18.1-3.7-24.7-10.3-6.5-6.6-10.2-15.5-10.2-24.7 0-19.4 15.6-35.1 34.8-35.1h268.9c-13.9 22.1-25.5 45.5-34.4 70L99 146.20000000000005z m0 559.9h743c19.3 0 34.8 15.7 34.8 35 0 9.3-3.6 18.2-10.1 24.8-6.5 6.6-15.4 10.3-24.7 10.3H99c-18.8-0.8-33.7-16.2-33.7-35 0.1-18.9 14.9-34.4 33.7-35.1z m0-419.9h211.7c0.7 23.5 3.5 47 8.5 70H99c-19.3 0-35-15.7-35-35 0-19.4 15.7-35 35-35z m351.6 279.9H99c-9.3 0-18.2-3.7-24.7-10.3-6.5-6.6-10.2-15.5-10.1-24.8 0-19.4 15.6-35.1 34.8-35.1h284.1c19.5 26.4 42.1 49.9 67.5 70.2z m0 0M687.3 279.1v73.5c0 17.4-14.1 31.5-31.5 31.5s-31.5-14.1-31.5-31.5v-105c0-17.5 14.1-31.5 31.5-31.5h105c17.4 0 31.5 14.1 31.5 31.5s-14.1 31.5-31.5 31.5h-73.5z m0 0"  horiz-adv-x="1024" />

    
    <glyph glyph-name="xuexizhongxin" unicode="&#58942;" d="M823.7 809h-251c-29.1 0-55.5-11.7-74.8-30.7-19.2 19-45.6 30.7-74.7 30.7h-251c-58.9 0-106.8-47.9-106.8-106.8v-518c0-17.7 14.3-32 32-32h304.4c44.4 0 67.8-36.5 68.6-37.8 0.4-0.7 1-1.1 1.4-1.8 0.5-0.7 1-1.3 1.5-1.9 1.7-2 3.6-3.8 5.6-5.4l1.2-0.9c5.2-3.5 11.3-5.6 17.7-5.6 2.8 0 5.7 0.4 8.5 1.2 1.2 0.3 2.2 1.1 3.3 1.5 1.6 0.6 3.1 1.3 4.6 2.1 1.3 0.8 2.4 1.7 3.6 2.6 1.4 1.1 2.6 2.3 3.8 3.6 0.8 0.9 1.7 1.9 2.4 2.9 0.3 0.5 0.8 0.9 1.1 1.4 1 1.6 24.4 38.1 68.8 38.1h304.4c17.7 0 32 14.3 32 32v518C930.5 761.1 882.6 809 823.7 809zM401.9 216.3H129.6V702.2c0 23.6 19.2 42.7 42.7 42.7h251c23.6 0 42.7-19.2 42.7-42.7V201c-17.5 8.9-38.8 15.3-64.1 15.3z m464.6 0H594.1c-25.3 0-46.6-6.4-64.1-15.3V702.2c0 23.6 19.2 42.7 42.7 42.7h251c23.6 0 42.7-19.2 42.7-42.7v-485.9zM385.9 642.1H209.7c-17.7 0-32-14.3-32-32s14.3-32 32-32h176.2c17.7 0 32 14.3 32 32 0 17.6-14.3 32-32 32zM385.9 501.3H209.7c-17.7 0-32-14.3-32-32s14.3-32 32-32h176.2c17.7 0 32 14.3 32 32s-14.3 32-32 32zM385.9 360.5H209.7c-17.7 0-32-14.3-32-32s14.3-32 32-32h176.2c17.7 0 32 14.3 32 32 0 17.6-14.3 32-32 32zM786.4 642.1H610.1c-17.7 0-32-14.3-32-32s14.3-32 32-32h176.2c17.7 0 32 14.3 32 32 0.1 17.6-14.2 32-31.9 32zM786.4 501.3H610.1c-17.7 0-32-14.3-32-32s14.3-32 32-32h176.2c17.7 0 32 14.3 32 32s-14.2 32-31.9 32zM786.4 360.5H610.1c-17.7 0-32-14.3-32-32s14.3-32 32-32h176.2c17.7 0 32 14.3 32 32 0.1 17.6-14.2 32-31.9 32zM898.5 56.1h-795c-17.7 0-32-14.3-32-32s14.3-32 32-32h795c17.7 0 32 14.3 32 32 0 17.6-14.3 32-32 32z"  horiz-adv-x="1024" />

    
    <glyph glyph-name="angle-right-copy" unicode="&#59632;" d="M750.933333 361.24444400000004L366.933333-19.911110989999997c-11.377778-11.377778-28.444444-11.377778-39.822222-1e-8-11.377778 11.377778-11.377778 28.444444 0 39.822222l344.177778 341.333333-344.177778 344.177778c-11.377778 11.377778-11.377778 28.444444 0 39.822222s28.444444 11.377778 39.822222 0L750.933333 361.24444400000004z"  horiz-adv-x="1024" />

    


  </font>
</defs>
</svg>
