<?xml version="1.0" standalone="no"?>
<!DOCTYPE svg PUBLIC "-//W3C//DTD SVG 1.1//EN" "http://www.w3.org/Graphics/SVG/1.1/DTD/svg11.dtd" >
<!--
2013-9-30: Created.
-->
<svg>
<metadata>
Created by iconfont
</metadata>
<defs>

<font id="iconfont" horiz-adv-x="1024" >
  <font-face
    font-family="iconfont"
    font-weight="500"
    font-stretch="normal"
    units-per-em="1024"
    ascent="896"
    descent="-128"
  />
    <missing-glyph />
    
    <glyph glyph-name="arrow-down" unicode="&#58933;" d="M778.225255 497.187283L508.266501 227.22943799999996 238.304106 497.187283Z"  horiz-adv-x="1024" />

    
    <glyph glyph-name="huirenyuan_huaban" unicode="&#58881;" d="M512-128C229.804651-128 0 101.804651 0 384S229.804651 896 512 896s512-229.804651 512-512-229.804651-512-512-512z m0 952.55814C269.097674 824.55814 71.44186 626.902326 71.44186 384s197.655814-440.55814 440.55814-440.55814 440.55814 197.655814 440.55814 440.55814S754.902326 824.55814 512 824.55814zM694.176744 537.6h-10.716279c-1.190698 86.92093-66.67907 155.981395-151.218605 165.506977v-15.47907h-36.911627v14.288372c-84.539535-9.525581-150.027907-78.586047-151.218605-165.506977H333.395349v-28.576744h361.972093v29.767442z m0 0M527.47907 704.297674V729.302326h-28.576744v-36.911628h28.576744v11.906976z m0 0M823.962791 153.004651v3.572093C785.860465 245.87907 689.413953 312.55814 571.534884 329.227907v15.47907c53.581395 26.195349 90.493023 89.302326 90.493023 160.744186h-297.674419c0-72.632558 36.911628-134.548837 90.493024-160.744186v-15.47907c-121.451163-17.860465-219.088372-86.92093-254.809303-178.604651v-3.572093c1.190698-1.190698 1.190698-3.572093 2.381396-4.762791 1.190698-1.190698 2.381395-3.572093 3.572093-5.953488l2.381395-2.381396c27.386047-58.344186 152.409302-103.590698 303.627907-103.590697 164.316279 0 297.674419 52.390698 308.390698 119.069767h2.381395c1.190698 1.190698 1.190698 2.381395 1.190698 3.572093z m0 0"  horiz-adv-x="1024" />

    
    <glyph glyph-name="icon" unicode="&#58895;" d="M512 384m-512 0a512 512 0 1 1 1024 0 512 512 0 1 1-1024 0ZM300.895949 426.070558a319.481467 319.481467 0 0 1 51.869601 24.628262 202.513557 202.513557 0 0 1 43.671069 34.721276L437.69059 411.143349h100.668836l4.834194 52.032919h-21.753875l-28.221244 45.728868h54.221371l5.291484 56.93244h-111.153812c1.339203 5.095502 2.515088 10.419649 3.462328 15.97244s1.959809 11.562871 3.00504 18.030239H552.012759l5.226156 56.246507h-219.400574l11.432217 22.864434H247.099203l-28.776524-52.620861h-17.899585l-4.017608-43.017799h104.817098l8.198532 16.62571h33.153429l-0.261307-2.743732a95.312026 95.312026 0 0 0-2.809059-15.972441q-2.057799-7.643254-4.736205-15.286507h-130.000637l-5.291484-56.93244h86.231579a180.335056 180.335056 0 0 0-43.703732-20.48 219.367911 219.367911 0 0 0-47.296714-9.341754l-7.349283-79.143605q28.188581 3.429665 57.291739 9.799043a408.620096 408.620096 0 0 1 56.246507 16.233748zM658.854992 259.51949l-11.105582-124.872472h-311.119617l15.743796 177.199362H548.746411l72.970208 66.078213H270.551579a49.746475 49.746475 0 0 1-48.995215-44.324338l-23.38705-264.312855h530.814163a50.563062 50.563062 0 0 1 49.648485 44.977608l23.387049 263.659585h-22.864434zM426.193046 282.873876l-53.894737-53.110814 82.67126-80.613461h61.048039l231.159425 229.754897h-93.809505l-162.304817-145.189155-64.869665 49.158533zM626.844785 666.604402c-24.98756 0-47.002743-19.07547-49.191196-42.46252l-19.598087-210.81008h229.460925c24.954896 0 46.97008 19.07547 48.995216 42.46252l19.598086 210.81008zM728.656842 471.374801h-57.716364l12.379458 133.266985h57.716364zM291.096906 435.869601a319.481467 319.481467 0 0 1 51.869601 24.628262 202.513557 202.513557 0 0 1 43.671069 34.721276L427.891547 420.942392h100.668836l4.834194 52.032919h-21.753875l-28.221244 45.728868h54.221371l5.291484 56.93244h-111.153812c1.339203 5.095502 2.515088 10.419649 3.462328 15.97244s1.959809 11.562871 3.00504 18.030239H542.213716l5.226156 56.246507h-219.400574l11.432217 22.864434H237.300159l-28.776523-52.620861h-17.899585l-4.017608-43.017799h104.817098l8.198532 16.62571h33.153429l-0.261307-2.743732a95.312026 95.312026 0 0 0-2.809059-15.972441q-2.057799-7.643254-4.736205-15.286507h-130.000638l-5.291483-56.93244h86.231579a180.335056 180.335056 0 0 0-43.703732-20.48 219.367911 219.367911 0 0 0-47.296714-9.341754l-7.349283-79.143605q28.188581 3.429665 57.291739 9.799043a408.620096 408.620096 0 0 1 56.246507 16.233748zM649.055949 269.318533l-11.105582-124.872472h-311.119617l15.743795 177.199362H538.947368l72.970208 66.078213H260.752536a49.746475 49.746475 0 0 1-48.995215-44.324338l-23.38705-264.312855h530.814163a50.563062 50.563062 0 0 1 49.648485 44.977608l23.387049 263.659585h-22.864434zM416.394003 292.672919l-53.894737-53.110814 82.67126-80.613461h61.048039l231.159425 229.754897h-93.809505l-162.304817-145.189155-64.869665 49.158533zM617.045742 676.403445c-24.98756 0-47.002743-19.07547-49.191197-42.46252l-19.598086-210.81008h229.460925c24.954896 0 46.97008 19.07547 49.158533 42.46252l19.598086 210.81008zM718.857799 481.173844h-57.716364l12.379458 133.266985h57.716364z"  horiz-adv-x="1024" />

    
    <glyph glyph-name="logo" unicode="&#58896;" d="M5.575891 394.001476v14.097536H13.255892l-8.016659 9.552658a82.775681 82.775681 0 0 1 20.641318 28.34236l14.497317-2.903672c-1.199343-3.240329-2.567014-6.165042-3.934686-9.068713h46.711239V420.471178H58.788829c-0.357699-4.376548-0.694356-8.416439-1.367672-12.309043h30.509593v-14.097536H54.012499a15.928111 15.928111 0 0 1-0.694356-2.272439 243.529672 243.529672 0 0 0 32.066634-18.453043l-10.057645-9.720987h65.227405v-68.846474H124.14248v6.31233H43.597156v-6.31233H27.353428v66.510912a144.005277 144.005277 0 0 0-14.160659-7.448549l-10.899289 12.477371C20.073208 373.759939 31.561648 382.5972 36.948169 393.370243l0.357698 0.631233z m11.593645 14.097536h24.554962c0.694356 4.039891 1.199343 8.100823 1.536 12.309042h-14.728769a74.695899 74.695899 0 0 0-11.362193-12.309042z m55.253924-44.544006A173.589061 173.589061 0 0 1 48.036828 380.493091a66.174254 66.174254 0 0 0-17.211619-17.001208zM124.14248 338.621305v11.320111H43.597156v-11.320111z m0-23.986852v10.688878H43.597156v-10.688878z m28.826305 119.218863v-61.229596H93.212066v61.229596z m-15.864988-13.613591H109.077054v-34.170743h27.963619zM263.813291 327.427441a101.502258 101.502258 0 0 0-15.002303-29.794196l-12.771947 7.764166a74.401324 74.401324 0 0 1 13.634632 24.954742z m50.498636 8.584768a151.033004 151.033004 0 0 0 15.675618-14.076495l-11.067617-7.448549a151.91673 151.91673 0 0 1-17.569318 16.517262l8.41644 5.007782h-61.019185v11.025535h106.047135v7.28022h-98.47234v10.373262h98.535464v7.132932h-103.985108v11.004495h18.579289v7.28022H240.289343v10.709919h29.162962V407.846519H246.601673v10.520549h22.850632v6.796274h-26.090962v10.688878h26.090962V443.616386h15.843947v-7.764166h23.145209v-10.688878h-23.145209V418.367068h20.809647v-10.520549h-20.809647v-6.964604h23.145209v-10.709919h-23.145209v-7.28022h53.886253v7.28022h-25.396605v10.709919h25.396605V407.846519h-21.819619v10.520549h21.819619v6.796274h-24.554962v10.688878h24.554962V443.616386h15.675619v-7.764166H380.84388v-10.688878h-25.985756V418.367068h22.345646v-10.520549h-22.345646v-6.964604h28.321318v-10.709919h-28.321318v-7.28022h15.696659v-46.816444z m-24.576003-38.063347c-11.256988 0-16.706632 4.860494-16.706632 14.265865v18.621372h15.50729v-15.381043c0-2.924713 1.704329-4.376548 5.470685-4.376549H332.449354a8.81622 8.81622 0 0 1 6.144 1.788494c1.704329 1.620165 2.714302 5.975672 3.408658 13.445261l14.728769-4.544877c-1.34663-11.509481-3.576987-18.474084-6.796275-20.725482a27.984661 27.984661 0 0 0-14.328987-3.093041z m101.628505 10.057645l-11.951344-7.785207a213.861724 213.861724 0 0 1-21.482961 26.090962l11.593645 6.796275A227.833013 227.833013 0 0 0 391.364429 308.006507zM465.976164 434.50559a259.941729 259.941729 0 0 1 54.706856 9.720988l5.617973-14.413153c-6.648987-1.788493-13.634632-3.408658-20.788605-4.860494V401.534189h21.041098v-14.728769h-21.041098v-7.132932c7.827289-5.828384 15.843947-12.309043 23.860605-19.441975l-6.480658-9.38433c28.636935 6.648987 48.394526 17.337865 59.335897 32.234963l14.728769-6.165042c-2.10411-3.072-4.20822-5.996713-6.648987-8.900385h30.004606v-12.792987q-15.591454-42.082197-92.075846-59.925049l-8.521645 14.560441a208.790819 208.790819 0 0 1 45.196279 13.276933c-4.20822 4.20822-8.542686 8.269152-12.792988 12.161754l11.425317 7.764166a160.143799 160.143799 0 0 0 14.833974-12.940276 67.878583 67.878583 0 0 1 24.197263 24.13414h-28.510688a139.712893 139.712893 0 0 0-41.429923-17.337865l-9.889316 13.760878-2.398685-3.387617c-5.786302 7.764165-10.73096 13.929207-14.728769 18.76866v-70.277268h-15.780824v67.605049a166.645499 166.645499 0 0 0-21.314632-36.927128l-6.985645 16.685591A118.903247 118.903247 0 0 1 487.964112 386.80542h-22.682304v14.728769h24.554961v20.893811c-6.817316-0.799562-13.634632-1.620165-20.620276-2.251398z m107.309601-1.472877h35.62258v-12.624659q-14.581481-37.179621-74.674858-52.602746l-8.184987 11.341152a155.704128 155.704128 0 0 1 32.045592 11.172824 73.117817 73.117817 0 0 1-10.057645 11.656768l11.256988 7.785206a64.36472 64.36472 0 0 0 10.225974-12.961316 78.16768 78.16768 0 0 1 23.018961 22.682304H561.797326a117.493493 117.493493 0 0 0-25.922633-18.936989l-10.920331 12.477372a114.442534 114.442534 0 0 1 38.189594 32.234962l16.033317-3.240329c-1.872658-3.135124-3.745316-6.059836-5.786302-8.921425zM770.756473 390.761147v-14.897098h-38.357922c-6.144001-22.198359-11.425316-38.378963-15.864988-48.752225a252.703591 252.703591 0 0 1 34.10762 9.552659c-3.934685 7.932494-7.84833 15.402084-11.783015 22.345646l13.655673 6.31233a462.672711 462.672711 0 0 0 22.492934-45.027951l-13.971289-6.817316-4.439672 10.373262a413.015719 413.015719 0 0 0-57.968226-14.097536l-3.913644 14.581481a8.416439 8.416439 0 0 1 3.408658 1.304548c4.586959 6.31233 10.73096 22.99792 18.57929 50.204061h-21.819619v14.897098z m-6.144 43.744443v-14.728769h-63.417871v14.728769z m45.469813 9.552659v-28.826305h36.990251c0-54.433321-0.862685-88.12012-2.398685-100.744779q-2.798466-17.990139-25.564935-17.990139c-2.735343 0-7.680001 0.315616-14.728769 0.652274l-3.745315 13.613591c6.12296-0.504986 11.593645-0.820603 16.033317-0.820603 7.153973 0 11.235947 3.724274 12.435289 11.172823 1.031014 7.932494 1.704329 34.339072 2.10411 79.367023H810.082286v-3.408658q-0.547069-70.445597-35.138634-103.101382l-12.898193 10.773043q31.203949 28.657976 31.729976 92.307298v3.429699h-19.778633v14.728769h19.778633v28.826305zM986.701266 429.476768v15.402084h16.033317v-15.402084h37.873977v-7.932494a248.768906 248.768906 0 0 1 17.905974 19.92592l11.930303-8.584768a215.018984 215.018984 0 0 0-30.004606-31.561648h36.990251v-14.518358h-55.758911c-6.985645-4.692165-14.139618-9.237042-21.482961-13.445262h67.857542V359.451992h-84.753544l-4.77633-13.445262h81.344887c-1.199343-23.650195-3.934685-37.579402-8.016659-42.082196-4.103014-4.20822-12.288001-6.480658-24.554962-6.480658a201.510599 201.510599 0 0 0-21.314632 1.136219l-5.281316 13.445262c8.689974-0.652274 16.369975-1.136219 23.145208-1.13622 8.416439 0 13.634632 1.304548 15.843947 3.576987 1.704329 2.588055 3.072 8.732056 4.103014 18.137427H959.474084l7.322303 24.618085a359.802782 359.802782 0 0 0-37.495238-12.961317l-6.480658 13.760879A322.118174 322.118174 0 0 1 993.707951 386.80542h-63.943898v14.581481h56.937213v14.076495h-44.333595v14.097536z m47.237265-14.097536h-31.203948v-14.076495H1016.28505c6.31233 4.439672 12.203837 9.216001 17.653481 14.076495zM1191.746769 396.273914v-66.742364c3.913644 3.724274 8.016658 7.785206 12.26696 12.330084l4.20822-16.201646a212.052189 212.052189 0 0 0-30.341264-25.754304l-6.144001 13.760878a10.204933 10.204933 0 0 1 4.20822 7.932494v59.925048h-22.556057v14.728769z m11.256988 22.997921l-11.088659-10.688878a165.50928 165.50928 0 0 1-26.764277 24.13414l11.256987 10.520549a178.554761 178.554761 0 0 0 26.595949-23.965811zM1275.090559 309.290014c-5.449644 10.204933-9.363289 23.650195-11.761974 40.167457a488.153481 488.153481 0 0 0-4.081973 52.329211h-52.602745v14.897098h52.350252c-0.357699 9.068713-0.357699 18.621372-0.357698 28.342359h15.696659c0-10.036604 0-19.441975 0.336657-28.342359h32.571621v-14.897098h-32.298086a476.328384 476.328384 0 0 1 4.776329-59.609431c3.408658-18.474084 7.343343-28.026743 11.951344-28.826305 2.714302 0.315616 5.449644 9.868275 8.416439 28.342359l12.771947-9.889316c-6.12296-23.481866-13.129645-35.306963-21.293592-35.306963-5.954631 0-11.67781 4.376548-16.47518 12.792988z m-64.596171 56.200774v14.434193h45.196279v-14.434193h-14.728769v-39.8308c6.817316 1.451836 13.634632 3.072 20.283619 4.860494v-14.413152c-14.833974-3.892603-30.677921-7.301261-47.573924-10.057645l-3.913644 14.728769c5.112987 0.652274 10.225974 1.283507 15.338961 2.104109v42.608225z m94.811189 60.093376l-11.278029-7.448548a176.029829 176.029829 0 0 1-16.538303 20.409865l11.088658 6.648987a205.424243 205.424243 0 0 0 16.727674-19.610304zM1438.727181 333.592482a170.096239 170.096239 0 0 0-42.797594-34.507401l-10.225974 12.624659a168.560239 168.560239 0 0 1 41.598252 31.561648z m-1.620164-38.063346l-3.745316 15.065426a164.814923 164.814923 0 0 1 17.379947-0.967891 4.79737 4.79737 0 0 1 5.470686 5.344439v35.769868c-16.369975-0.967891-33.665757-1.788493-52.602746-2.588055L1399.23304 361.556102a69.288337 69.288337 0 0 1 13.99233 2.735343 217.712245 217.712245 0 0 1 41.429923 23.502907c-13.655673-0.988932-28.300277-1.956822-43.660279-2.756384l-3.408658 13.613591a34.570525 34.570525 0 0 1 10.92033 2.735342q10.225974 4.860494 24.554961 19.92592c-13.466303-0.483945-27.626962-0.799562-42.629265-0.799561l-4.776329 13.276933c48.773266 0 90.013819 3.240329 123.616453 9.38433l8.016658-12.792988a480.431398 480.431398 0 0 0-64.17535-7.806248 157.198046 157.198046 0 0 0-27.626962-24.302468c11.930303 0.652274 23.881647 1.304548 35.769867 2.10411 7.153973 5.681097 14.728769 11.825097 22.324606 18.474084l15.023344-6.964604c-27.121976-22.345646-50.645924-38.715621-70.592885-49.404499 23.692277 1.451836 44.333594 3.240329 61.88187 5.197152-3.745316 4.692165-7.490631 9.38433-11.593645 14.076495L1500.230312 388.90953a323.338558 323.338558 0 0 0 32.550579-40.98806l-12.961317-8.584768c-3.050959 5.197151-6.648987 10.520549-10.520549 16.033317-11.256988-1.283507-23.523948-2.419726-37.011292-3.387617v-40.651402c0-10.373261-5.449644-15.7177-16.012276-15.7177z m100.997272 13.929207l-11.740933-11.025536c-9.889316 11.193864-23.860606 23.145208-41.76658 35.959237l10.73096 10.057645a284.349403 284.349403 0 0 0 42.629265-34.991346zM1658.038549 439.408166a276.164416 276.164416 0 0 0-24.554962-46.984773q8.689974 0.988932 17.400989 2.440768c2.88263 5.17611 5.954631 10.836166 9.026631 16.832878l14.497317-5.17611c-13.634632-24.618085-25.059948-42.755512-34.444278-54.41228a242.709069 242.709069 0 0 1 32.213921 10.836166v-14.097536a247.31707 247.31707 0 0 0-52.602746-14.728769l-4.208219 14.244823a29.205044 29.205044 0 0 1 7.343343 4.544878q7.911453 8.016658 19.946961 27.690085c-7.84833-1.283507-16.033317-2.419726-24.554961-3.555945l-4.20822 14.097535a15.801865 15.801865 0 0 1 6.985645 5.975672 290.051541 290.051541 0 0 1 21.482961 48.120992z m14.139618-119.53448a252.598386 252.598386 0 0 0-53.023568-18.158468l-1.872657 15.402084a255.94392 255.94392 0 0 1 54.896225 17.485153z m33.434306 46.963732c-0.862685-20.578194-3.598028-35.643621-8.016659-45.196279-4.944658-10.036604-13.129645-18.789701-24.72329-26.23825l-10.225974 12.140714a53.149814 53.149814 0 0 1 20.451947 20.914851c3.913644 7.764165 6.144001 20.557153 6.817316 38.378964z m-31.898306 18.621372a18.368879 18.368879 0 0 1 3.24033 1.136219c5.112987 3.555946 11.761974 12.792988 19.778632 27.353428h-26.364496v14.728769h41.429922a143.268839 143.268839 0 0 1-6.648987 14.56044l16.538304 2.609096c2.230356-5.197151 4.439672-10.857207 6.480658-17.169536h37.34795v-14.728769h-51.845267a205.971312 205.971312 0 0 0-17.379947-27.143017c13.802961 1.304548 27.626962 2.924713 41.261594 4.860494-3.408658 4.544877-6.817316 8.921426-10.225974 13.297974l12.26696 7.28022a305.579871 305.579871 0 0 0 26.090962-36.274853l-12.624659-8.269152c-2.10411 3.724274-4.418631 7.448549-6.817316 11.341152-21.041098-3.072-44.186307-5.512768-68.867514-7.28022z m67.689214-87.467846c-12.098632 0-18.074303 5.197151-18.074304 15.402084v55.190801h15.528331v-52.329212c0-2.588055 1.009973-4.20822 3.072-4.523836h9.531618c3.072 0.315616 4.944658 2.419726 5.281316 6.31233a165.824896 165.824896 0 0 1 0.862685 18.789701L1771.66048 332.098564c0-15.549372-1.34663-24.954743-3.745315-28.510688s-7.65896-5.028823-15.50729-5.681096zM597.988015 532.914807l15.381043 174.977774h-159.260074l3.387617 33.265976h159.239032l7.196056 87.004942H472.583069l3.366575 38.50521h151.348621L629.844238 895.537096h70.740172l-2.524931-28.868387h151.34862l-3.387617-38.50521h-151.34862l-7.175015-87.004942h158.860293l-3.387617-33.265976h-158.860293l-15.381043-174.977774H597.988015zM450.616162 537.712177l2.819507 31.940388h16.201646l35.285922 122.943137h66.405706l-47.994745-154.883525h-72.718036zM521.714033 754.940477l-30.741044 59.483185h71.139953l14.897098-28.426524h16.201646l-2.735343-31.056661h-68.76231zM715.755042 754.940477l2.714302 31.056661h16.201646l19.505098 28.426524h71.518693l-41.57721-59.483185h-68.362529zM744.244689 537.712177l-20.788605 154.883525h66.405707l13.297974-122.943137h16.601426l-2.798466-31.940388h-72.718036zM910.658736 599.972787a338.298779 338.298779 0 0 1 47.868499 17.001208 293.123541 293.123541 0 0 1 46.101046 25.249318A224.929341 224.929341 0 0 1 1043.638478 675.29992c11.48844 12.309043 20.409865 18.116386 26.743236 32.676825h-152.127141l3.997808 39.830799h158.165937l6.985644 82.060284h-145.562318l3.934685 38.12647H1302.654398l-3.955726-38.12647h-145.962099l-6.964604-82.060284h157.808238l-3.976768-39.830799h-130.328563l118.58763-131.4227-38.589374-46.290416-120.733823 152.800456c-10.520549-18.158468-31.982469-44.985868-47.763293-59.882966a309.746009 309.746009 0 0 0-52.1188-39.599347 388.250347 388.250347 0 0 0-60.030254-29.646908 447.459997 447.459997 0 0 0-63.586199-19.673427zM1527.289164 846.721748L1523.37552 811.162291h-30.909374l-5.870466-69.225213 31.561647 8.837261-4.460712-51.045704-31.561648-9.300166-11.362193-129.802535a31.41436 31.41436 0 0 0-30.677921-28.195072H1374.614955l3.745315 42.692388h24.470797l8.41644 95.168888-34.465319-9.805152 4.523836 51.508609 34.444278 9.826193 7.637919 89.340503h-33.665758l3.976768 35.559457h33.665757L1430.899893 896h69.16209l-3.598028-49.278252zM1658.038549 778.401301h116.967466l-19.1474-218.932628a30.109812 30.109812 0 0 0-29.457537-27.037811h-84.585216l3.303453 37.768771H1679.079648l4.208219 49.088883-175.8615-67.710255 4.860494 55.422253c30.088771 6.880439 176.492733 75.074639 176.492733 75.074639l2.10411 25.017866L1515.14845 639.2986l4.860494 55.443294 126.62533 47.11102h-107.498971l4.081973 46.606032 145.183578 60.366912H1540.208399l3.598027 41.282634h239.090001l-5.533809-63.123295zM67.62609 742.399982a188.107419 188.107419 0 0 1 30.804168 14.728769 120.165713 120.165713 0 0 1 26.027839 20.662359l24.744331-44.186307h59.967131l2.88263 31.014579h-12.940275l-16.832879 27.353428H214.619203l3.156165 33.91825H151.495908c0.799562 3.029918 1.493918 6.207124 2.10411 9.510577s1.15726 6.90148 1.788493 10.752001h61.944994l3.114082 33.51847H89.65612l6.796275 13.382138H35.601538L18.453043 861.618845H7.785206L5.407562 835.990788h62.428939l4.881535 9.910357H92.580833l-0.168329-1.641206a57.147623 57.147623 0 0 0-1.662247-9.510576c-0.820603-3.050959-1.746411-6.080877-2.819507-9.110796H10.373261l-3.156164-33.91825h51.361321a107.877711 107.877711 0 0 0-26.006798-12.182796A132.285385 132.285385 0 0 0 4.376548 773.96163L0 726.808528q16.832879 2.10411 34.128662 5.786302A239.868521 239.868521 0 0 1 67.62609 742.399982zM280.877622 643.107039l-6.606905-74.380283H88.940723l9.363288 105.54215h116.946425L258.80551 713.636801H49.572828A29.646908 29.646908 0 0 1 20.430906 687.230222l-13.99233-157.450539h316.226667a30.06773 30.06773 0 0 1 29.562743 26.785319l13.887125 157.071799h-13.697755zM142.279907 657.015205l-32.087675-31.624771 49.23617-48.036827h36.380059l137.692948 136.872344h-55.885157L180.932405 627.725996l-38.652498 29.289209zM261.814387 885.605697c-14.876057 0-28.005702-11.362193-29.31025-25.375564L220.931533 734.656858h136.767139c14.876057 0 27.984661 11.362193 29.289209 25.354523l11.656768 125.594316z m60.661486-116.209986h-34.381155l7.364385 79.409105h34.402196zM1907.796387 885.774026h-15.065427v-46.290416h-6.796275v46.290416h-15.023344V891.79178h36.885046zM1963.134475 839.504651V874.117258c0 2.861589 0.168329 6.31233 0.504987 10.310138h-0.168329a30.951456 30.951456 0 0 0-1.578083-5.260275l-17.232659-39.641429h-3.745316l-17.211618 39.346854a35.980278 35.980278 0 0 0-1.557041 5.575891h-0.210411c0.231452-2.440767 0.336658-5.975672 0.336657-10.520549v-34.423237h-6.438576V891.79178h9.152878l15.423125-35.769867a47.616006 47.616006 0 0 0 2.314521-6.417535h0.252493c1.15726 3.219288 1.977863 5.407562 2.461808 6.543782L1961.030365 891.79178h8.711015v-52.287129z"  horiz-adv-x="3350" />

    
    <glyph glyph-name="ceshijilu" unicode="&#58897;" d="M256 310.857143h73.142857v-73.142857h-73.142857zM402.285714 310.857143h73.142857v-73.142857H402.285714zM548.571429 310.857143h73.142857v-73.142857h-73.142857zM694.857143 164.571429h73.142857v-73.142858h-73.142857zM256 164.571429h73.142857v-73.142858h-73.142857zM402.285714 164.571429h73.142857v-73.142858H402.285714zM548.571429 164.571429h73.142857v-73.142858h-73.142857zM694.857143 310.857143h73.142857v-73.142857h-73.142857zM768 822.857143V896h-73.142857v-73.142857h-365.714286V896h-73.142857v-73.142857H36.571429v-950.857143h950.857142V822.857143z m146.285714-877.714286H109.714286V457.142857h804.571428z m0 585.620915H109.714286V749.714286h146.285714v-73.142857h73.142857v73.142857h365.714286v-73.142857h73.142857v73.142857h146.285714z"  horiz-adv-x="1024" />

    
    <glyph glyph-name="ceshilishi" unicode="&#58898;" d="M512-128C229.804651-128 0 101.804651 0 384S229.804651 896 512 896s512-229.804651 512-512-229.804651-512-512-512z m0 952.55814C269.097674 824.55814 71.44186 626.902326 71.44186 384s197.655814-440.55814 440.55814-440.55814 440.55814 197.655814 440.55814 440.55814S754.902326 824.55814 512 824.55814zM782.288372 201.823256l-111.925581 111.925581c58.344186 114.306977 13.097674 254.809302-101.209303 313.153489S315.534884 641.190698 257.190698 526.883721 242.902326 272.074419 357.209302 213.730233c66.67907-34.530233 145.265116-34.530233 211.944186 0l111.925582-111.925582c27.386047-28.576744 72.632558-30.95814 101.209302-3.572093 28.576744 27.386047 30.95814 72.632558 3.572093 101.209302-1.190698 0-2.381395 1.190698-3.572093 2.381396zM285.767442 419.72093c0 98.827907 79.776744 178.604651 178.604651 178.604651s178.604651-79.776744 178.604651-178.604651-79.776744-178.604651-178.604651-178.604651-178.604651 79.776744-178.604651 178.604651z m459.609302-254.809302c-7.144186-7.144186-19.051163-7.144186-26.195349 0l-50.009302 50.009302c-7.144186 7.144186-7.144186 17.860465 0 25.004651 7.144186 7.144186 17.860465 7.144186 25.004651 0l50.009303-50.009302c8.334884-7.144186 8.334884-17.860465 1.190697-25.004651z"  horiz-adv-x="1024" />

    
    <glyph glyph-name="chakanjilu" unicode="&#58899;" d="M732.641842 336.740239l-93.132928 93.248477a194.007673 194.007673 0 1 1-84.582261-84.351162h0.577748l92.43963-93.132928a59.508012 59.508012 0 1 1 84.235612 84.120064zM318.627849 517.921914A148.827804 148.827804 0 1 0 467.340104 369.09411a148.943354 148.943354 0 0 0-148.712255 148.827804z m382.353419-212.611149a14.674791 14.674791 0 0 0-21.030015 0L637.660122 347.370797a14.90589 14.90589 0 0 0 21.030016 21.030015l42.060031-42.060031a14.674791 14.674791 0 0 0 0.231099-21.030016zM724.668923 78.371474H304.993004c-35.242609 0-35.242609-56.734823 0-56.734823h419.675919c35.358158 0 35.358158 56.734823 0 56.734823zM724.668923 180.401715H304.993004c-35.242609 0-35.242609-56.850372 0-56.850372h419.675919c35.358158 0 35.358158 56.850372 0 56.850372zM759.795983 896H117.687204v-1024h788.625592V753.874069z m78.342586-955.825773H185.861431V827.825773h538.807492v-108.154367h113.469646z"  horiz-adv-x="1024" />

    
    <glyph glyph-name="datiqingkuang" unicode="&#58900;" d="M768.059535 749.663256V822.891163H548.613953V896h-73.108837v-73.108837H256.059535v-73.227907H73.168372V-128h877.663256V749.663256z m-438.891163 0h365.663256v-73.108837H329.168372z m548.554419-804.554419H146.277209V676.554419h109.782326v-73.108838h512v73.108838h109.663256zM728.171163 456.513488L602.909767 331.252093l-77.038139 77.03814-51.676279-51.795349 130.262325-127.166512 175.508838 175.508837-51.795349 51.676279zM263.68 479.255814h142.883721v-59.534884H263.68zM263.68 312.55814h142.883721v-59.534884H263.68zM263.68 145.860465h500.093023v-59.534884H263.68z"  horiz-adv-x="1024" />

    
    <glyph glyph-name="fanhui" unicode="&#58901;" d="M744.409847-128L219.805722 390.302063 744.750499 896l59.103127-61.317365L341.759148 389.450432l462.43513-456.814371-59.784431-60.636061z"  horiz-adv-x="1024" />

    
    <glyph glyph-name="cuotizhongzuo" unicode="&#58903;" d="M187.003917 435.811701l54.750388 54.750388 136.983175-136.970563-54.750388-54.763zM270.182633 355.760857l185.85619 185.856189 54.750387-54.750388-185.856189-185.856189zM215.949353 40.564602l211.093583 211.106195L481.793324 196.895184 270.699741-14.185786zM215.949353 196.81951l54.750388 54.750388 211.106196-211.093583-54.763001-54.750388zM775.535903 776.308412h78.827442v-78.827441h-78.827442zM893.714004 776.308412h78.827442v-78.827441h-78.827442zM1011.892105 776.308412h78.827442v-78.827441h-78.827442zM0 896v-1024h1260.230078V896z m78.827442-945.172558V577.789383h529.720409v-626.961941z m1102.701318 0H686.996921V577.789383h494.531839z m0 706.293878H78.827442V817.172558h1102.701318zM775.662027 464.782362h315.309768v-88.286734h-315.309768zM775.662027 300.821283h315.309768v-88.286734h-315.309768zM775.662027 136.860204h315.309768v-88.286734h-315.309768z"  horiz-adv-x="1260" />

    
    <glyph glyph-name="kaodianlianxi" unicode="&#58904;" d="M157.538462 738.461538h78.76923v-78.76923H157.538462zM275.755323 738.461538h78.769231v-78.76923h-78.769231zM393.846154 738.461538h78.769231v-78.76923h-78.769231zM157.538462 423.384615H630.153846v-78.76923H157.538462zM157.538462 265.846154H630.153846v-78.769231H157.538462zM157.538462 108.307692H630.153846v-78.76923H157.538462zM0 896v-1024h1260.307692V896z m1181.538462-945.230769H78.769231V502.153846h1102.769231z m0 630.153846H78.769231V817.230769h1102.769231zM1102.769231 423.384615H708.923077v-393.846153H1102.769231z m-78.769231-315.076923H787.692308V344.615385h236.307692z"  horiz-adv-x="1260" />

    
    <glyph glyph-name="kaoshi" unicode="&#58905;" d="M210.336744 274.336744h557.722791v-73.108837H210.336744zM210.336744 128h557.722791v-73.108837H210.336744zM462.347907 439.819907l51.700093 51.688186 129.321674-129.309767-51.700093-51.712zM540.755349 364.365395l175.461209 175.46121 51.700093-51.688186L592.455442 312.677209zM768.059535 749.663256V822.891163H548.613953V896h-73.108837v-73.108837H256.059535v-73.227907H73.168372V-128h877.663256V749.663256z m-438.891163 0h365.663256v-73.108837H329.168372z m548.554419-804.554419H146.277209V676.554419h109.782326v-73.108838h512v73.108838h109.663256z"  horiz-adv-x="1024" />

    
    <glyph glyph-name="lianxi" unicode="&#58906;" d="M136.549276 896v-170.62681H68.274638V656.859411h68.274638v-136.310135H68.274638v-68.274638h68.274638v-136.549276H68.274638v-68.274638h68.274638v-136.549276H68.274638v-68.274638h68.274638v-170.62681h819.176086V896z m68.274638-955.725362v102.352172h68.274638v68.274638h-68.274638V247.450724h68.274638v68.274638h-68.274638V452.274638h68.274638V520.549276h-68.274638V656.859411h68.274638v68.513779h-68.274638V827.725362h546.077534v-887.450724z m682.62681 0H819.176086V827.725362h68.274638z"  horiz-adv-x="1024" />

    
    <glyph glyph-name="kuaisulianxi" unicode="&#58908;" d="M171.347699 471.58074h85.673849v-85.67385h-85.673849zM342.695398 471.58074h85.673849v-85.67385h-85.673849zM514.043097 471.58074h85.673849v-85.67385h-85.673849zM685.254589 471.58074h85.673849v-85.67385h-85.673849zM856.602288 471.58074h85.673849v-85.67385h-85.673849zM1027.949987 471.58074h85.673849v-85.67385h-85.673849zM257.021548 300.233041h85.67385v-85.67385h-85.67385zM428.369247 300.233041h85.67385v-85.67385h-85.67385zM599.716946 300.233041h85.673849v-85.67385h-85.673849zM770.928438 300.233041h85.67385v-85.67385H770.928438zM942.276137 300.233041h85.67385v-85.67385h-85.67385zM1027.949987 129.021548h85.673849v-85.673849h-85.673849zM171.347699 129.021548h85.673849v-85.673849h-85.673849zM342.695398 129.021548h599.716946v-85.673849H342.695398zM685.254589 642.928438V896H599.308327v-253.071562H0v-770.928438h1284.971535v770.928438z m514.043097-685.254589H85.673849v599.308327h1113.623837z"  horiz-adv-x="1284" />

    
    <glyph glyph-name="monikaoshi" unicode="&#58909;" d="M641.934865 462.338454h509.42018v-77.268772H641.934865zM641.934865 307.675065h509.42018v-77.268773H641.934865zM216.075704 549.2847l54.629273 54.629273 136.680153-136.667568-54.629274-54.641858zM299.158511 469.511614l185.445053 185.445053 54.629274-54.641858-185.445054-185.445054zM1365.291385 42.645693V896H0v-853.354307h640.047192v-85.322847H469.401499v-85.322846h426.614232v85.322846H725.370038v85.322847zM85.322846 128.346073V810.677154h1194.645693V128.346073z"  horiz-adv-x="1365" />

    
    <glyph glyph-name="shezhi" unicode="&#58910;" d="M512-128C229.804651-128 0 101.804651 0 384S229.804651 896 512 896s512-229.804651 512-512-229.804651-512-512-512z m0 952.55814C269.097674 824.55814 71.44186 626.902326 71.44186 384s197.655814-440.55814 440.55814-440.55814 440.55814 197.655814 440.55814 440.55814S754.902326 824.55814 512 824.55814zM838.251163 555.460465c-1.190698 5.953488-4.762791 9.525581-9.525582 11.906977-5.953488 2.381395-11.906977 1.190698-15.479069-3.572093l-83.348838-83.348837-91.683721 28.576744-28.576744 91.683721 83.348838 82.158139c5.953488 5.953488 5.953488 15.47907 0 21.432558-2.381395 2.381395-5.953488 3.572093-9.525582 4.762791-94.065116 8.334884-176.223256-61.916279-184.558139-155.981395-2.381395-25.004651 1.190698-50.009302 9.525581-73.823256l-7.144186-7.144186-276.241861-258.381395c-34.530233-29.767442-39.293023-82.15814-9.525581-117.87907s82.15814-39.293023 117.87907-9.525582c3.572093 2.381395 5.953488 5.953488 9.525581 9.525582l258.381396 278.623256c2.381395 2.381395 4.762791 4.762791 5.953488 7.144186 88.111628-33.339535 185.748837 10.716279 220.27907 97.637209 9.525581 25.004651 13.097674 51.2 10.716279 76.204651zM301.246512 130.381395c-11.906977-11.906977-30.95814-11.906977-42.865117 0s-11.906977 30.95814 0 42.865117 30.95814 11.906977 42.865117 0 11.906977-30.95814 0-42.865117z"  horiz-adv-x="1024" />

    
    <glyph glyph-name="shangyiti" unicode="&#58911;" d="M82.742644 896v-170.62681H14.468006V656.859411h68.274638v-136.310135H14.468006v-68.274638h68.274638v-136.549276H14.468006v-68.274638h68.274638v-136.549276H14.468006v-68.274638h68.274638v-170.62681h926.78935V896z m858.514712-955.725362H151.017282v102.352172h68.274638v68.274638h-68.274638V247.450724h68.274638v68.274638h-68.274638V452.274638h68.274638V520.549276h-68.274638V656.859411h68.274638v68.513779h-68.274638V827.725362h790.240074zM350.867071 386.188136l338.192621 338.192621 50.733676-50.721719L401.58879 335.454461zM401.684447 436.933769L739.900981 98.741149l-50.733676-50.721719-338.19262 338.19262z"  horiz-adv-x="1024" />

    
    <glyph glyph-name="shijian" unicode="&#58912;" d="M476.27907 336.372093V693.581395h71.44186v-357.209302zM476.27907 407.813953h345.302325v-71.44186H476.27907zM512-128a512 512 0 1 0 512 512 512 512 0 0 0-512-512z m0 952.55814a440.55814 440.55814 0 1 1 440.55814-440.55814A440.55814 440.55814 0 0 1 512 824.55814z"  horiz-adv-x="1024" />

    
    <glyph glyph-name="shuqian" unicode="&#58913;" d="M811.172051 896H212.727928A85.60486 85.60486 0 0 1 128.0117 809.407772v-850.815544a85.60486 85.60486 0 0 1 84.716228-86.592228l299.27143 256.715842 299.172693-256.715842a85.703597 85.703597 0 0 1 84.814965 86.592228V809.407772A85.506123 85.506123 0 0 1 811.172051 896zM671.064444 255.987658L512.493043 343.073571l-157.97898-87.480861L384.727543 441.316749 256.369621 572.439302 433.404816 599.789413l78.98949 168.543824L592.074954 599.789413l176.83772-27.053901-128.357921-131.122553L671.064444 255.987658z"  horiz-adv-x="1024" />

    
    <glyph glyph-name="wode" unicode="&#58914;" d="M513.28 896L111.592727 648.610909 107.869091-125.090909l807.098182-2.909091 1.163636 771.956364z m107.869091-932.305455l-211.898182 0.698182V144.989091a106.123636 106.123636 0 1 0 212.014546 0z m206.429091-0.698181h-115.549091V172.101818A174.545455 174.545455 0 0 1 541.090909 349.090909h-51.781818a174.545455 174.545455 0 0 1-170.938182-176.872727V-34.909091H195.723636l3.141819 631.854546 314.181818 193.28L828.276364 593.454545z"  horiz-adv-x="1024" />

    
    <glyph glyph-name="wodecuoti" unicode="&#58915;" d="M512-128C229.804651-128 0 101.804651 0 384S229.804651 896 512 896s512-229.804651 512-512-229.804651-512-512-512z m0 952.55814C269.097674 824.55814 71.44186 626.902326 71.44186 384s197.655814-440.55814 440.55814-440.55814 440.55814 197.655814 440.55814 440.55814S754.902326 824.55814 512 824.55814zM619.162791 570.939535L296.483721 248.260465c-21.432558-25.004651-20.24186-61.916279 4.762791-84.539535 22.623256-20.24186 57.153488-20.24186 79.776744 0l321.488372 323.869768c20.24186 25.004651 16.669767 63.106977-8.334884 83.348837-22.623256 17.860465-53.581395 17.860465-75.013953 0zM296.483721 487.590698L619.162791 163.72093c26.195349-20.24186 63.106977-16.669767 83.348837 9.525582 17.860465 21.432558 17.860465 52.390698 0 75.013953L379.832558 570.939535c-25.004651 21.432558-61.916279 20.24186-84.539535-4.762791-19.051163-22.623256-19.051163-55.962791 1.190698-78.586046z"  horiz-adv-x="1024" />

    
    <glyph glyph-name="xitongtongzhi" unicode="&#58916;" d="M512-128C229.804651-128 0 101.804651 0 384S229.804651 896 512 896s512-229.804651 512-512-229.804651-512-512-512z m0 952.55814C269.097674 824.55814 71.44186 626.902326 71.44186 384s197.655814-440.55814 440.55814-440.55814 440.55814 197.655814 440.55814 440.55814S754.902326 824.55814 512 824.55814zM744.186047 247.069767c-20.24186 0-35.72093 15.47907-35.720931 35.720931v238.139535c0 91.683721-75.013953 166.697674-166.697674 166.697674 0 20.24186-15.47907 35.72093-35.72093 35.72093s-35.72093-15.47907-35.720931-35.72093c-91.683721 0-166.697674-75.013953-166.697674-166.697674v-238.139535c0-20.24186-15.47907-35.72093-35.72093-35.720931s-35.72093-15.47907-35.72093-35.72093 15.47907-35.72093 35.72093-35.72093h476.27907c20.24186 0 35.72093 15.47907 35.72093 35.72093s-15.47907 35.72093-35.72093 35.72093z m-238.139535-178.604651c39.293023 0 71.44186 32.148837 71.44186 71.441861h-142.883721c0-39.293023 32.148837-71.44186 71.441861-71.441861z"  horiz-adv-x="1024" />

    
    <glyph glyph-name="xiayiti" unicode="&#58917;" d="M82.742644 896v-170.62681H14.468006V656.859411h68.274638v-136.310135H14.468006v-68.274638h68.274638v-136.549276H14.468006v-68.274638h68.274638v-136.549276H14.468006v-68.274638h68.274638v-170.62681h926.78935V896z m858.514712-955.725362H151.017282v102.352172h68.274638v68.274638h-68.274638V247.450724h68.274638v68.274638h-68.274638V452.274638h68.274638V520.549276h-68.274638V656.859411h68.274638v68.513779h-68.274638V827.725362h790.240074zM739.86511 386.104437L401.672489 47.887903l-50.721718 50.733676 338.19262 338.19262zM689.167305 335.382718L350.974685 673.575339l50.721719 50.733675L739.900981 386.104437z"  horiz-adv-x="1024" />

    
    <glyph glyph-name="zhunkaozhenghao" unicode="&#58918;" d="M512-128C229.804651-128 0 101.804651 0 384S229.804651 896 512 896s512-229.804651 512-512-229.804651-512-512-512z m0 952.55814C269.097674 824.55814 71.44186 626.902326 71.44186 384s197.655814-440.55814 440.55814-440.55814 440.55814 197.655814 440.55814 440.55814S754.902326 824.55814 512 824.55814zM722.753488 223.255814c5.953488-3.572093 11.906977-8.334884 15.47907-14.288372 3.572093-7.144186 5.953488-14.288372 5.953489-21.432558v-163.125582c0-10.716279-3.572093-20.24186-9.525582-28.576744-5.953488-7.144186-14.288372-11.906977-23.813953-10.716279l-210.753489-95.255814-196.465116 94.065116c-9.525581 0-17.860465 3.572093-23.813954 10.716279-5.953488 8.334884-9.525581 17.860465-9.525581 28.576745V186.344186c0 8.334884 1.190698 15.47907 5.953488 22.623256 3.572093 5.953488 9.525581 11.906977 15.47907 14.288372l146.455814 96.446512c-25.004651 15.47907-46.437209 36.911628-59.534884 63.106976-15.47907 28.576744-22.623256 60.725581-22.623255 92.874419 0 23.813953 3.572093 46.437209 11.906976 69.060465 7.144186 20.24186 17.860465 39.293023 32.148838 55.962791 13.097674 15.47907 29.767442 28.576744 48.818604 38.102325 36.911628 19.051163 82.15814 19.051163 119.069768 0 19.051163-9.525581 34.530233-21.432558 48.818604-38.102325 14.288372-16.669767 25.004651-35.72093 32.148838-55.962791 8.334884-22.623256 11.906977-45.246512 11.906976-69.060465 0-32.148837-8.334884-63.106977-22.623256-91.683721-13.097674-26.195349-33.339535-47.627907-57.153488-64.297674l141.693023-96.446512z"  horiz-adv-x="1024" />

    
    <glyph glyph-name="yuedu" unicode="&#58919;" d="M358.16186 439.367442h461.633489v-76.91907H358.16186zM358.16186 237.425116h461.633489v-76.919069H358.16186zM358.16186 641.428837h461.633489v-76.91907H358.16186zM50.366512 896v-1024h923.266976V896z m76.919069-945.175814V817.175814h76.91907v-866.351628z m769.428838 0h-615.590698V817.175814h615.590698z"  horiz-adv-x="1024" />

    
    <glyph glyph-name="arrow-right-copy" unicode="&#58920;" d="M279.590153 896L804.194278 377.697937 279.249501-128l-59.103127 61.317365L682.240852 378.549568l-462.43513 456.814371 59.784431 60.636061z"  horiz-adv-x="1024" />

    


  </font>
</defs>
</svg>
